<?xml version="1.0" encoding="utf-8"?>
<!-- Generator: Adobe Illustrator 22.0.1, SVG Export Plug-In . SVG Version: 6.00 Build 0)  -->
<svg version="1.1" xmlns="http://www.w3.org/2000/svg" xmlns:xlink="http://www.w3.org/1999/xlink" x="0px" y="0px"
	 viewBox="0 0 520.6 380.2" style="enable-background:new 0 0 520.6 380.2;" xml:space="preserve">
<style type="text/css">
	.st0{display:none;}
	.st1{display:inline;fill:#231815;}
	.st2{fill:#96D5D2;opacity:0.5;}
	.st3{fill:#74A42E;}
</style>
<g id="レイヤー_1" class="st0">
	<rect x="-142.1" y="-92.9" class="st1" width="782.7" height="557.3"/>

		<image style="display:inline;overflow:visible;opacity:0.33;" width="3508" height="2479" xlink:href="F444AEDF.jpg"  transform="matrix(0.24 0 0 0.24 -171.75 -113.1875)">
	</image>
</g>
<g id="blocks_x5F_002">
	<path class="st2" d="M141,145.7l-5.9-15.9l1.1-1l-4.9-15.5l9.6-11.1l4.6-10.9l33.8-11.3h5.5l8.6,8.4l5.4,4.1l7.1,1.9l9,0.4
		l-4.3,10.4l-2.8,5.9c0,0-2.5,5.8-2.9,6.1s-4.1,3.6-4.1,3.6L141,145.7z"/>
	<polygon class="st2" points="128.4,156.8 100,169.7 110.5,190.7 142.6,179.1 	"/>
	<path class="st2" d="M116.6,241.9l21.8-13.1l1.5,2.8l1.1-0.3l1.6,4.8l12.1-0.7l7.1,11.4l-5.3,5.9l-4,3.1c0,0-2.4,0.5-3.4,1
		s-8,2-8,2h-1.5l-4.8-3.3l-3-0.9l-14-1L116.6,241.9z"/>
	<path class="st2" d="M104.8,289.3l2.6-31.6l-13.3-1.1l0.9-4.4v-6.9l0.1-5.6L81,237.8v6.8h-2.1l-1.2,12.1l1.2,0.3l-0.5,11.4H65.8
		L48,276.5l3.5,2.2l3.3,2.8l2.5,4.9l0.5,4c0,0-0.1,2.4-0.3,2.9s-0.4,1.5-0.4,2.4s-0.1,2.5-0.1,2.5l3.9,11.6l2.8-0.6l3.3,0.6
		c0,0,2.3,1.7,2.4,2.3s12.8-1.4,12.8-1.4l1.5-3.6l-1-4.7l7-2.3l9.4-3.1l3.5-2.9"/>
	<polygon class="st2" points="139.3,33.3 137,32.3 131.3,27.3 133.5,24.7 135.6,25.3 136.6,22.6 136.4,21.8 133.8,19.5 136.3,15
		142.6,13.2 143.3,11.2 148.3,12.1 149.6,9.3 151.4,9.3 151.8,9.3 149.2,3.6 150.5,0 155.3,1.3 158.8,5.6 162,7.3 154,11
		149.2,17.1 	"/>
	<polygon class="st2" points="22.3,245.1 13.6,251.7 15.6,254.7 20.6,248.9 27.6,249.3 27.3,261.4 24.8,261.4 22.5,262.5
		25.8,264.7 28.8,264.7 31.9,265.6 33.8,268.2 36.7,271.9 36.7,261.9 45.1,262.1 46.8,243.4 58.6,237.1 54.9,230.4 25.4,247.8 	"/>
</g>
<g id="blocks_x5F_003">
	<g id="block003">
		<path class="st3" d="M159.5,63.6l1.2-8.6l2.5-9l5.8,2.2l1.3,3.5l4.8,2.5h3.8l2.3-2.5l7.3,1c0,0,1.6,5.1,2.3,6.8
			c1.5,3.6,3,4.3,3,4.3s-5.3,0.1-7,0c-3-0.1-9.1-1.1-12.1-1.1c-3.2,0-9.7,0.9-12.9,1.1C161,63.6,159.5,63.6,159.5,63.6z"/>
		<polygon class="st3" points="157.8,46.3 153.5,45.1 152.3,46.3 145.5,42.1 146.8,35.3 143.3,30.9 150,18.6 155.8,12.8 156.3,20.1
			157.8,24.6 159.8,24.6 164.3,32.1 160.5,40.1 		"/>
		<polygon class="st3" points="153.3,64.1 155.8,56.1 151.3,54.1 150,57.3 147.3,59.1 140.5,56.6 142.3,60.3 139,60.3 137.5,68.8
			144.3,66.6 148.3,65.6 		"/>
		<polygon class="st3" points="387.7,94.7 385,111.1 406.5,109.8 		"/>
		<polygon class="st3" points="388.6,89.1 415.7,109.9 428.8,106.5 424.2,99.5 418.8,93.7 412.2,92.2 407,90.3 403.4,86.8
			395.8,79.1 391.6,72.5 		"/>
		<polygon class="st3" points="370.4,162.3 365.7,189.3 352.7,178.2 346.9,165.1 		"/>
		<polygon class="st3" points="282.3,207.6 293.4,196.5 298,190.9 301.4,185.2 303.1,182.8 308.9,175.8 314.6,172.3 325,168
			342.1,165.8 349,181.1 364.6,194.7 362.7,199.2 343.6,193.9 337.1,191.7 332.2,192 327.9,193.2 306.7,202.1 298.4,206.8
			295.4,212.5 		"/>
		<polygon class="st3" points="285.1,197.1 283.8,195.7 278.5,196.4 276.8,198.8 269.3,196.3 267.7,194.5 265.1,189.3 263.3,188.6
			264.6,185.8 266.5,181.1 268.1,179 275,175.8 276.2,174.8 277.5,173 283.3,171.9 291.3,171.9 293.7,173.7 297.5,175.8
			299.1,175.8 298.1,177.3 300.3,178.6 297.5,183.1 293.9,189.2 291.8,191.3 288.5,194.3 		"/>
		<polygon class="st3" points="270.5,219 272.2,222.3 273.5,226.2 267.5,229.3 263.3,233.5 257.7,239.2 253.8,236 260.9,229.1 		"/>
		<polygon class="st3" points="268,214.7 263.6,210.5 260.9,208.6 258.4,207.7 254.2,207.7 249.2,209.8 243.6,214.7 239.3,217.1
			236.3,219.7 240.6,225.9 247.1,230.6 249.8,233.1 		"/>
		<path class="st3" d="M228.2,263.4l6.7,7.4l-3.4,8.4c0,0-4.3,10-4.4,10.4c-0.1,0.4-3.8,5-3.8,5l-3.6,3.2l-4.9,1.8l-7.5,2.4
			l-8.2,2.9l-6.1,2.1h-3l-5.4-8l8-5.1l9.2-6.1l5.5-5.3l9.7-9L228.2,263.4z"/>
		<polygon class="st3" points="146.1,276.5 154.8,289.9 150.4,299.9 132.5,313.3 123.4,301.1 125.8,294.9 129.7,290.1 		"/>
		<polygon class="st3" points="144.6,331 141.8,328.7 148.6,322.4 151.9,320.3 155.3,318.6 158.4,318.1 161.5,318.1 165.7,316.5
			172.7,325.2 169.4,327.3 165.3,327.1 158.2,327.9 151.1,329 		"/>
		<path class="st3" d="M144.1,356.2l2.8,2l-3.7,4.7l-5.5,5c0,0-5.9,5.5-6.3,5.7c-0.4,0.1-6.8,4.6-6.8,4.6l-3,2l-3.2-6.5l1.7-1.1
			l-2.4-3.2L144.1,356.2z"/>
		<polygon class="st3" points="128.7,338.5 138.3,354.7 114.2,365.6 105.2,365.1 97.6,364.1 96.4,364 93.9,348.9 104.3,348.3
			105.1,350.5 113,346.4 120.1,354.5 121.7,350.3 124.7,346.6 127.6,343.4 124.3,340.2 		"/>
		<polygon class="st3" points="47.4,341.5 51.1,338.5 54.7,336.4 60.2,335 63.2,335 63.2,341.9 64.9,352.7 68.5,362.7 71.7,366.3
			72.8,366.9 81,367.6 70.5,369.7 70,372.8 59.4,361.6 58.4,358.9 57.2,353.9 55.6,349.7 52.3,344.1 		"/>
		<polygon class="st3" points="70.5,316.5 72.5,331.9 87.3,336.8 87.3,334.5 82.6,315.8 		"/>
		<path class="st3" d="M57.3,330.2l4-0.8l3,0.4l-0.9-7.1c0,0-1.9,0.1-2.7-0.5c-0.4-0.3-2.2-1.4-2.5-1.8c-0.6-0.8-1.7-2.9-1.9-3.9
			c-0.2-1.1,0.2-3.5,0.8-4.5c0.6-0.9,3.8-2.4,3.8-2.4s-2-1.4-2.5-2c-1-1.2-2.6-3.9-3.2-5.4c-0.6-1.5-1.5-4.6-1.3-6.2
			c0.1-0.8,1.1-2,1.3-2.8c0.2-0.7,0.2-2.1,0.1-2.8c-0.1-1.3-0.2-4.1-0.8-5.3c-0.5-0.9-2.1-2.3-2.9-3c-1-0.8-3.1-2.3-4.2-3
			c-1.1-0.7-3.5-2-4.6-2.8c-1.5-1-5.7-4.2-5.7-4.2l-0.8,10.5l16.1,49.5L57.3,330.2z"/>
		<polygon class="st3" points="32.1,266.9 31.1,282.7 48,334.3 46.3,336.1 45.9,333.3 43.4,331 42,332.3 40.1,330.3 37.9,330.1
			37.5,328.9 31.9,326.3 30.8,323.7 28,323.1 23.3,318.1 22.5,315.8 21.8,310.8 22.5,309.2 18.6,302.3 9.6,290.6 8,289.9 0,281.2
			5.1,279.2 8.4,282.1 10.9,282.4 11.8,281.2 11.6,278.6 15,277.3 18.9,272.2 19.5,269.2 18.1,266.1 15.3,261.9 12.8,259.2
			10.6,255.3 5.8,251.3 5.5,247.7 2.6,246.2 3.3,244.6 7.6,246.8 13.6,251.7 19.5,260.6 26.1,264.9 		"/>
		<path class="st3" d="M164.1,348.8l12.5-14.9l6.2,6.5l2-1.1l3.5,7.3l-6.7,1.8l0.8,4.1l-0.5,1.7l-3.2,1.2c0,0-1.1-1.7-1.8-2.4
			c-0.6-0.6-2.1-2-2.9-2.3c-0.8-0.3-2.8-0.7-3.7-0.7c-0.5,0-2,0.3-2,0.3L164.1,348.8z"/>
		<polyline class="st3" points="447.3,219 445,218.2 442.7,222.1 433.8,217.1 443.7,207.2 448.3,201.2 455.1,189.3 467.1,195.4
			482.5,199.7 497.2,203.2 510.8,208.5 520.6,214.1 511.4,217.1 511.8,217.9 505.9,220.2 500.4,226.2 500.5,229.6 498.9,236.7
			491.6,238.9 491.5,237.2 489.2,236.4 488.6,233.8 474.7,232.4 476.7,225.8 479.1,222.3 479.7,217.9 477.2,214.1 472,211.8
			464.6,213 461.7,217.1 461.9,221.5 461.2,229.9 455.1,227.5 456.1,220.3 454.2,220.2 451.1,222.3 449.7,223.8 446.9,222.4 		"/>
	</g>
</g>
</svg>
