<svg xmlns="http://www.w3.org/2000/svg" viewBox="0 0 5680 4001.78"><defs><style>.cls-1{fill:#fff100;}</style></defs><title>アセット 1</title><g id="レイヤー_2" data-name="レイヤー 2"><g id="黄色"><polygon class="cls-1" points="1241.51 1742.88 1137.24 1802.92 1080.27 1704.24 1182.54 1645.2 1241.51 1742.88"/><polygon class="cls-1" points="845 2087.2 681.87 2074.2 676.87 1970.2 760.93 1953.2 779 1980.2 817 1982.2 845 2087.2"/><polygon class="cls-1" points="115.38 2326.08 63.76 2344.57 28 2293.7 0 2256.7 55 2193.7 122 2200.95 115.38 2326.08"/><polygon class="cls-1" points="1121 3600.7 1056.88 3624.72 987.18 3630.09 953 3471.7 979.04 3470.69 1014 3480.7 1078 3483.7 1108.78 3523.7 1093 3535.7 1121 3600.7"/><polygon class="cls-1" points="2115.54 2950.34 2097.45 2962.82 2103.79 2970.55 1995.27 3035.56 1946.18 2952.74 1966.56 2934.11 2078.45 2873.52 2115.54 2950.34"/><polygon class="cls-1" points="2083.99 3218.66 2047.96 3249.97 2022.16 3250.72 1996.3 3278.49 1970.45 3267.27 1944.04 3215.81 1942.68 3181.99 2036.82 3132.45 2083.99 3218.66"/><polygon class="cls-1" points="2800.33 3037.36 2795.67 3076.7 2781.67 3068.7 2776.67 3032.36 2765.33 2987.03 2732.67 2896.7 2806 2868.36 2825.33 2879.7 2853.67 2871.7 2878.33 2895.36 2928 2926.7 2939.02 2919.03 2961.67 2941.36 2965.67 2968.53 2934.67 3006.03 2919.33 3003.7 2889.67 3031.36 2849.17 3037.03 2836.33 3068.03 2820.33 3089.36 2815.33 3037.7 2800.33 3037.36"/><path class="cls-1" d="M4064,3261.7l-18,16.91h-72l-4.17-16.43s6.45-7.36-5.69-25.92S3944,3222.7,3944,3222.7l-11.32-16,64.32-77,38-1,67.48-64.36,7,22.36,7,45-15,19-8.48-5-36,43Z"/><polygon class="cls-1" points="2343 2048.7 2309 2083.7 2274 2147.7 2303 2188.7 2343 2152.7 2361 2126.7 2389 2146.7 2409 2118.7 2382 2103.7 2386 2093.7 2343 2048.7"/><polygon class="cls-1" points="2636 2193.7 2591 2245.7 2594.3 2252.24 2570 2313.7 2595 2340.7 2609 2340.7 2629 2327.7 2636.77 2337.76 2636 2352.7 2645.79 2364.62 2728.79 2300.62 2636 2193.7"/><polygon class="cls-1" points="3121 2053.7 3133 2061.7 3133 2100.7 3150 2121.7 3128.03 2152.33 3109 2188.7 3057 2193.7 3042.21 2198.7 3019 2222.7 2980 2176.7 3054 2103.7 3121 2053.7"/><polygon class="cls-1" points="3023 519.7 2979 550.7 2968 570.7 2979 584.7 2973 598.7 3080 632.7 3133 633.7 3142 610.7 3106 596.7 3117 534.7 3055.5 509.7 3034 526.7 3023 519.7"/><polygon class="cls-1" points="2549 909.7 2524 1018.7 2607 1048.7 2645 946.7 2549 909.7"/><path class="cls-1" d="M3123,206.7l6,43,7,4.66a14.37,14.37,0,0,1,6.12,14.78L3138,279.7l48,39,13.5,42s12.5,4,15.5,5,63-57,63-57l-22-49-37-39v-9l-11.75-15-18.25-2-28,20-13-10Z"/><polygon class="cls-1" points="1516 1633.7 1584 1755.7 1686 1694.7 1611 1576.7 1516 1633.7"/><polygon class="cls-1" points="1753 1164.7 1766 1238.7 1775 1300.7 1879 1281.7 1840 1140.7 1753 1164.7"/><path class="cls-1" d="M2053,1028.7l111-12s26.5,4,44-21,22-37,22-37l-88.5-178-108.19,49.37V951.7Z"/><polygon class="cls-1" points="1895 35.7 1864 55.7 1904 139.7 1933 175.7 1952 210.7 2009 202.7 1971 105.7 1995 91.7 1954 70.7 1895 35.7"/><polygon class="cls-1" points="1868 356.7 1933 324.7 1935.5 345.2 1948 339.2 1962 376.7 1974 380.7 1991 421.7 1926 457.7 1864 402.7 1868 356.7"/><polygon class="cls-1" points="4188 1731.7 4167 1841.7 4275 1846.7 4293 1743.7 4217 1737.7 4188 1731.7"/><polygon class="cls-1" points="4394 547.7 4494 609.7 4531 522.7 4505 496.7 4518 477.7 4510 468.7 4491 463.7 4481 471.7 4457 458.7 4394 547.7"/><path class="cls-1" d="M4765,2151.7l-5,25,252,76v-14l14-1,8-51-7.91-3,.91-38-17-18s-56,22-97,24-64-4-64-4h-62Z"/><polygon class="cls-1" points="4884 2023.7 4884 2080.7 4916 2102.7 4916 2117.2 4897 2127.7 4940 2127.7 5072 2090.7 5076 2075.7 5047 2064.7 5044 2034.7 4990 2033.7 4923 2023.7 4884 2023.7"/><path class="cls-1" d="M4549,2689.7s-10,61-7,75,7,74,7,74l9,15,43-39,6-9,37-8-23-47,2-46-26-15Z"/><path class="cls-1" d="M4806,2753.7l78,66,74-100,4-30-35-22s-11,2-15,10-4,21-10,26-19,9-26,9-26-4-26-4Z"/><path class="cls-1" d="M3832,2874.7h10l45,44v18l19,34,18-7s-1-35,8-48,46-46,46-46l-17-24s-25-8-34-15-22-29-22-29-30-8-42-1S3832,2874.7,3832,2874.7Z"/><path class="cls-1" d="M5237,2972.7l57-36,19,13,20,5,17,47h10l16,20,30-5,10,17s30-2,41-6,70-42.5,70-42.5l-14-67.5,14,8s13.21-10.94,24-8c22,6,35,40,35,40s40.16.16,61,16c25,19,33,47,33,47l-37,49-9,64-27,69s-4,15-3,23,5,18,5,18l48-6,6,45-11,13-86,18-19-7-43-15-8-14-16,9-52-1-30-24-3-18s-37-8-47-20-28-36-28-36l-35-10-30-32-1-21,16-14-22-14-29-37-5-15Z"/><path class="cls-1" d="M4989,1476.7l-15,61,258,68-30-82-15-1-25-69s-69,0-86,5-35,11-49,14S4989,1476.7,4989,1476.7Z"/><path class="cls-1" d="M2075,3967.7s13-23,27-26,81-23,81-23l8,7v49s-15-1-25,3-29,22-37,24S2075,3967.7,2075,3967.7Z"/><polygon class="cls-1" points="3310 15.7 3236.97 0 3220.71 52.01 3370 94.7 3389 24.7 3323.25 4.88 3310 15.7"/></g></g></svg>