<?xml version="1.0" encoding="utf-8"?>
<!-- Generator: Adobe Illustrator 22.1.0, SVG Export Plug-In . SVG Version: 6.00 Build 0)  -->
<svg version="1.1" id="レイヤー_1" xmlns="http://www.w3.org/2000/svg" xmlns:xlink="http://www.w3.org/1999/xlink" x="0px"
	 y="0px" viewBox="0 0 610.6 463.2" style="enable-background:new 0 0 610.6 463.2;" xml:space="preserve">
<style type="text/css">
	.st0{fill:#EB4C36;}
	#blocks001{opacity:0.8}
	#blocks002{opacity:0.8}
	#blocks003{opacity:0.8}
	#blocks004{opacity:0.8}
	#blocks005{opacity:0.8}
	#blocks006{opacity:0.8}
	#blocks007{opacity:0.8}
	#blocks008{opacity:0.8}
	#blocks009{opacity:0.8}
	#blocks010{opacity:0.8}
	#blocks011{opacity:0.8}
	#blocks012{opacity:0.8}
	#blocks013{opacity:0.8}
	#blocks016{opacity:0.8}
	#blocks017{opacity:0.8}
</style>
<g id="blocks017">
	<polygon class="st0" points="388,98.6 391.7,91.1 386.7,89.1 384.5,94.2 385,97.4 	"/>
	<path class="st0" d="M370.1,99l1.3-3.5l-0.8-0.6l3.2-9.9l-13.6-4c0,0-3.2,6.6-3.8,9c-0.2,0.6-0.3,2.6-0.3,2.6l7.9,0.7l3.6,3.5
		L370.1,99z"/>
	<polygon class="st0" points="329.2,152 328.2,160.4 344.7,194.9 370.9,191.8 374,179.2 377.9,153.1 363,153.9 345.2,153.6 	"/>
	<path class="st0" d="M378.5,125.6c-3.6,0-6.5-2.9-6.5-6.5c0-0.5,0.1-0.9,0.2-1.4l-2.1-1.6l-24.8,12.8l-4.3,1.6h-4.4l-3-1.1
		l-3.8,19.1l14.8,1.1h17.1h16.8l4.4-23.7l-1.4-1C380.6,125.3,379.6,125.6,378.5,125.6z"/>
</g>
<g id="blocks016">
	<path class="st0" d="M141,180.4l-5.9-15.9l1.1-1l-4.9-15.5l9.6-11.1l4.6-10.9l34.7-12l4.6,0.7c0,0,6.8,5.9,9.1,7.8
		c1.5,1.3,4.3,4.1,6.1,5c1.4,0.7,4.4,1.4,6,1.6c2.2,0.3,9,0.4,9,0.4l-4.3,10.4l-2.8,5.9c0,0-2.5,5.8-2.9,6.1s-4.1,3.6-4.1,3.6
		L141,180.4z"/>
	<polygon class="st0" points="128.4,191.5 100,204.4 110.5,225.4 142.6,213.8 	"/>
	<path class="st0" d="M116.6,276.6l22.1-13.3l1.2,3l1.1-0.3l1.6,4.8l12.2-0.7l7,11.4c0,0-3.8,4.5-5.3,5.9c-0.9,0.9-2.9,2.5-4,3.1
		c-0.8,0.5-2.3,1-3.3,1.3c-1.1,0.3-8.1,1.7-8.1,1.7h-1.5c0,0-3.2-2.5-4.5-3.2c-0.7-0.3-2.4-0.7-3.2-0.8c-3.5-0.6-13.9-1.1-13.9-1.1
		L116.6,276.6z"/>
	<polygon class="st0" points="139.3,67.9 136.5,67.3 133.7,64.9 131.3,62 133.5,58.9 135.6,59.9 136.4,57.4 136.4,56.5 133.8,54.2
		136.3,49.7 142.6,47.9 143.3,45.9 147.1,46.7 149.6,43.9 151.4,43.9 151.7,43.6 148.6,39.4 150.5,34.7 155.4,35.5 159.2,40.1
		162.5,42.6 159.2,43.8 154.3,46.2 149.2,51.8 	"/>
	<polygon class="st0" points="22.3,279.8 13.6,286.4 15.7,289.3 20.6,283.6 27.6,283.9 26.8,296.1 24.8,296.1 22.5,297.2
		25.8,299.4 28.8,299.4 32.1,301.6 36.6,306.2 36.7,296.6 45.1,296.8 46.8,278.1 58.6,271.8 54.9,265.1 25.4,282.5 	"/>
	<path class="st0" d="M94.7,291.2l0.3-4.3V280l0.1-5.6L81,272.5v6.8h-2.1l-0.8,5.8l-0.4,4.7l-0.1,1.6l1.2,0.3L78.4,303H65.8
		L48,311.1l3.5,2.2l3.3,2.8l2.5,4.9l0.5,4c0,0-0.1,2.4-0.3,2.9s-0.4,1.5-0.4,2.4s-0.1,2.5-0.1,2.5l3.8,11.2c0.8-0.3,1.7-0.5,2.6-0.5
		c2.4,0,4.5,1.3,5.7,3.1l0.4,0.1c0.1,0.6,12.8-1.4,12.8-1.4l1.5-3.6l-1-4.7l7-2.3l9.4-3.1c0,0,2.8-2,3.5-2.9c0.8-1,2.2-4.7,2.2-4.7
		l2.6-31.6L94.7,291.2z"/>
</g>
<g id="blocks013">
	<path class="st0" d="M250.2,96.6l3.8,1.2l-0.5,7.6h2.6v0.9l-5.9,1.3l-8,3.9l-1.3,0.7l2.2,4.3l5.6-3l14.8,3.3l9.9,2.5v2.2l6.7,6.2
		l-0.5,1.7l5,1.6l4.2-12.7l1.1-3.7l2.8,0.7l1.5-4.8c-0.2,0-0.3-0.1-0.3-0.1l-19-4.6v-1.4l-4.5-2.3l6.1-13.9l-5.7-2.7l-5.5,12.2
		L251.5,90c0,0-3.4-1.8-4.6-2.4s-3.8-1.6-5-2.1c-0.9-0.4-2.3-0.9-3.7-1.5l-1.8,3.9l0,0c2.2,0.9,4.9,2.1,6.3,2.7
		c2.1,0.9,8.3,3.9,8.3,3.9L250.2,96.6z"/>
	<path class="st0" d="M197.6,305.5l-5.3-7.6l2.9-2l-3.4-2.9l-1.8-0.6l-0.9-6.3l4.5-3.7l4.8-2.1l-0.9-2.1l-4.3,1.5l-3.4-5.8l-3,2.9
		l-6.4-0.3l-1.6-0.9l-1.6-2.3l-1-3.5l13-14.3l-3.8-2.5l-4.3,4.6l-6.8-6.4l-6.4-10.5l-3.3,1.8l-2.8,1.8l-1.6-6.5l-1.9-6.5l-3.4-7.1
		l-4.7-7.3l-4.6,0.8l2.5,4l2.8,4.7c0,0,1,2.1,1.4,2.9c0.6,1.3,1.7,3.9,2.1,5.3c1,3,3.1,12.3,3.1,12.3l-8.5,5.4l-6.3,4.6l1.7,2.1
		l0.9,0.8l7.1-0.1l0.7,5.2l1.8,5.4l7,11.4l0.9,1.3l1.1,1.3l2.6,2.4l2.4,2.6l-7.8,6.2l1.8,2.5l-1.1,0.6l2.5,3.4l3.3,1.6l0.3,0.8
		l1.7,2.3l4.2-7.4l3.6,5.2l6.5-4l1,2.1l3.2-1.6l4,5.7l7.5,10.3l4-3.4L197.6,305.5z"/>
	<path class="st0" d="M433,246.6l-0.9-0.5l-5.9,6.7l-2.1-1.6l-7.3-0.2l-10.5-0.5h-4.9l-4.3,0.9l-4.4,2.7c0,0-6.5-2.8-8.3-3.3
		c-2.9-0.8-6-0.7-8.9-1.3c-1.8-0.4-6.6-1.7-8.5-2.1c-2.4-0.5-10-1.2-10-1.2l-0.4,6l2.9,3.9l5.1-3.5l2.1-0.8l11.3,4.1l-0.5,2.4
		l-4.5,6.4l17.6,11.1l-3.1-5.7h3.5l2.8,5.2l6.5,5.6l8.9,6.7l3.5,2.7l2.5-4.1c0,0,2.9-3.6,3.8-4.9c0.8-1.2,2.7-3.8,3.2-5.2
		s1.3-5.2,1.3-5.2l0.8-4.8l0.9-3.4l1.8-3.6l6.9-7.2l1.2-1.3L433,246.6z"/>
</g>
<g id="blocks012">
	<path class="st0" d="M468.5,186.5c0,0-0.4-1.8-0.6-2.4c-0.2-0.5-1.1-1.7-1.1-1.7l3.7-2.5l2.4,3.8L468.5,186.5"/>
	<polygon class="st0" points="90.1,372.3 87.3,371.4 87.3,371.4 72.5,366.6 64.3,364.5 61.3,364.1 57.3,364.9 52.4,367 48,369
		46.3,370.8 47,371.4 47.4,376.2 63.2,369.7 67.5,369.7 89,376.4 90.6,376.9 	"/>
	<path class="st0" d="M339.8,195.3l-4.6,0.3l-5.5,0.7l-5.8,1.6l-5.3,1L311,201l-5.4,1.5l-1.3,0.7l-1.4-1.3h-4.3l-0.5,1.5l-15.5-0.3
		l2-1.9h-6l-4.4-0.8l-13.8-0.5l0,0l0,0l-6,0.5l0,0.1l-16.6-1.2l-32.9,5.3l0-0.1l-4.5,0.2l-17.1,2.7l-15.1,2.1l-15,2.4l-5.6,0.5
		l-5,1.5l-32.1,11.6l0.5,0.8l-3.2,1l-0.4,1.3l-7.4,4.6l45.6-15.5l0.1,0.1l4.5-0.8l10.1-1.1l41.6-6.2l4.3-0.8l2.5-0.4l24-3.7l8.3-1
		l10.5,0.6l2.9,0.1l3.5,0.2v0l18.2,0.8v-1.3l7.8,0.1l0,2l-0.7,0.4h8h2.6h5.8l1-1.7l1.9-0.3l0.4,2h2.6l-5.3,6.7l-2.8,4.5l-3.6,6
		l-2.1,2.1l-3.3,3.1l-3.4,2.7l-4,4.4v1.9l-2.5,3.1h-2.3c-8.1,8.5-8.1,8.5-8.1,8.5l-18.4,18.2l-3.2,3.5l-5.3,5.2l-2,2l-6,6.4
		l-8.9,9.3l-11.3,10.5l-9.5,8.9l-4,3.4l-9.5,8l-0.8,0.4l0,0.1l2.7,3.5l0.6-0.4l9.2-6.1l5.5-5.3l9.7-9l11.2-10.1l8-9l13.8-15.2
		l3.8-3.2l7.1-6.9l9.6-10.1l11.8-11.5l6.2-6.2l4.9-4.8l4.6-5.7l3.4-5.6l1.7-2.4l5.8-7l5.7-3.5l10.4-4.4l17.1-2.1L339.8,195.3z"/>
	<polygon class="st0" points="450,190 446.5,190.6 438.2,191.4 387.2,191.4 376.8,191.4 370.9,191.8 344.7,194.9 346.9,199.7
		370.4,197 375.7,196.6 381.3,196.3 395.8,196 423,196 445.7,195.4 451.2,193.7 450.3,192.1 	"/>
</g>
<g id="blocks011">
	<path class="st0" d="M463.1,197.8l-4.4,0c0,1-0.1,1.9-0.1,2.5c-0.1,1.1-0.5,4.6-0.8,5.6c-0.5,1.7-2.4,5.3-2.4,5.3l4.1,2.8
		c0,0,2.8-5.2,3.3-7.1C463.4,204.6,463.1,197.8,463.1,197.8z"/>
	<path class="st0" d="M359.2,103.7c-1.2-1.7-2.7-5.6-3-7.6c-0.1-0.9,0-3.4,0-3.5l-0.1,0c0,0,0.1-2,0.3-2.6c0.6-2.4,3.8-9,3.8-9
		l-4.7-0.9c0,0-2.5,6.4-3.3,8.6c-0.2,0.5-0.6,1.5-0.7,2c-0.1,1.2,0.2,3.6,0.4,4.8c0.2,1.4,1,4.1,1.5,5.4c0.5,1.5,1.5,4.4,2.3,5.7
		c0.7,1,3.4,3.5,3.8,3.8l0.1,0.1l5.7,3.1l6.2-2.9c0,0-6.9-2.8-9-4.1C361.6,106,359.8,104.6,359.2,103.7z"/>
	<path class="st0" d="M384.2,121.1l-0.1-0.2l-2.6,4l1.4,1l0,0.1l4.8,3.4l18.8,15l4.8,3.2l0.5,0.4l22.1,17.1l15.9,12.3l3.3,4l4.5-2.2
		l-0.6-0.9c0,0-4.7-4.5-6.4-6c-4-3.6-16.9-13.4-16.9-13.4l-16-12.1l-2-2.2l-27.2-20.8L384.2,121.1z"/>
	<polygon class="st0" points="393.8,316.9 398.6,311.3 404,306.1 406.9,301.8 412.7,290.3 409.2,287.6 409.2,287.6 400.8,303
		392.3,311.3 390,314.9 389.9,315 393.7,317.1 	"/>
	<path class="st0" d="M432.6,245.5l-0.5,0.6l0,0l0.9,0.5l2.1,3.9l8.5-8.5l4.6-6.1L455,224l-4.5-1.9c0,0-1.8,3.7-2.4,4.8
		c-0.9,1.5-2.8,4.5-3.9,5.9c-1,1.3-4.3,5.1-4.3,5.1L432.6,245.5z"/>
	<path class="st0" d="M386.4,331.9c0,0-1.8-0.5-2.3-0.8c-0.5-0.3-1.6-1.4-1.6-1.4l-6.4,5c0,0-2.3,2.4-2.9,3.4
		c-0.6,0.9-1.7,3.9-1.7,3.9l-1.5,5.4c0,0-0.9,3.9-1.4,5.1c-0.5,1.2-1.8,3.4-2.7,4.4c-0.9,1.1-4.4,3.6-4.4,3.6s1.1,1.4,1.3,2
		c0.2,0.5,0.3,2.3,0.3,2.3l4.9-3.8l4.3-4.7l1.3-3.7l1.1-5.1l1-3.3l1.7-3.8l4.4-4.3L386.4,331.9z"/>
</g>
<g id="blocks010">
	<path class="st0" d="M355.7,106.6c-0.8-1.3-1.8-4.2-2.3-5.7c-0.5-1.3-1.3-4-1.5-5.4c-0.2-1.2-0.5-3.6-0.4-4.8
		c0.1-0.5,0.5-1.5,0.7-2c0.8-2.2,3.3-8.6,3.3-8.6l-4-1l-4.4,8.3l-4.2,7.3c0,0-3.1-2.9-3.9-4c-0.8-1-1.8-3.4-2.6-4.3
		c-0.8-0.9-3.6-3.2-3.6-3.2l-0.8,3.5L317.9,83l-1.1,1.8l-3.1,3.1L303,85l-12.3-3.2l-10.2-2.5l-17.1-5.2l-5.3-1.3l-7.2-1.8l-5.4-1.3
		l-18.4-4.3l-10.6-2.7l-7.3-1.4l-15.5-3.1l-8.4-2.1c0,0-3.9-0.5-5.2-0.7c-1-0.1-3.2-0.2-4.2-0.5c-1.2-0.3-3.4-1.4-4.5-2.1
		c-1.3-0.8-5.1-3.6-5.1-3.6l-5.5-4.2l-1.6-1.3l-4.9,2.4l3.8,2.4l4.7,4.6l8.5,5.4l-3.5,4.7l-3.9,4l-2.6,4.2l-2,4.7l-1.7,4.5
		l-3.9,17.6l-0.9,4.4l-5.6,0.7l-5.6,1.5l-3.8,1.7l-0.6,1l1.5,4l6.3-2.3l5.6-1.2l6.6-0.5l5.3,0.6l6.1,1.4l6.9,2v1.6l9.3,1.5
		c0,0,6.5,5.7,8.7,7.5c1.6,1.3,4.6,4.3,6.4,5.3c1.4,0.7,4.4,1.4,6,1.6c2.2,0.3,9,0.4,9,0.4l-4.3,10.4l-2.8,5.9c0,0-2.5,5.8-2.9,6.1
		s-4.1,3.6-4.1,3.6l-8.5,3.5l1.1,5.1l9.5-4.5l3.2-2.8l1.7-1.7c0,0,2.8-3.4,3.5-4.7c0.7-1.1,1.7-3.5,2.2-4.8c0.8-1.9,2.2-5.8,3-7.7
		c0.6-1.4,1.9-4.2,2.8-5.5c0.6-1,2.8-3.8,2.8-3.8s1.8-1.8,2.5-2.3c2.3-1.7,10.4-5.8,10.4-5.8l2.8-1.2l5.3-2.8l-2.2-4.3l-3.1,1.6
		l-5,2.8l-2.6,1.3l-7.9,4.3l-3.2,1.6l-4.2,0.9c0,0-6,0.3-7.9-0.1c-1.8-0.4-6.7-2.8-6.7-2.8l-2.3-1.8l-6.6-6.9c0,0-5-3.2-6.8-4
		c-2.6-1.1-8-2.6-10.7-3.3c-2.5-0.6-7.6-1.8-10.1-2.3c-1.6-0.4-6.2-0.9-6.2-0.9l0.4-1.4l1-3.4l1.7-8.2l2.5-9l1.7-5l2-3.8l4.4-5.2
		l3-4l2.4-2.8l2.2,0.6l4.2,0.7l8.9,1.7l8.9,1.9l5.6,1.3l12.4,2.9l6.3,1.5l0,0l9.3,2.2l13.6,2.9l11.9,3.2l18.6,5.2l8.9,2.3l8.2,2
		L303,90l13,4l0.3,2.3l1.3,1.1l0.3,1.1l0,0l18.6,6.1c0,0-1.1,2.1-1.4,2.9c-0.5,1.1-1.5,4.6-1.5,4.6s-0.4,3.6-0.6,4.8
		c-0.2,0.8-0.5,2.3-0.9,3.2l0,0l5.3,1.2l0.2-0.6l1.6-8.4l1.6-5.6l0.6-0.8l1.5-2.1l16.6,6.7C359.6,110.5,356.5,107.7,355.7,106.6z"/>
	<polygon class="st0" points="189.3,166.1 193.4,164.1 204.9,204.4 200.4,204.6 	"/>
	<polygon class="st0" points="121.8,159.4 117.8,163.8 126.3,186.8 130.8,184.9 	"/>
	<polygon class="st0" points="133.4,189.3 128.4,191.5 142.6,213.8 147.6,212.3 	"/>
	<path class="st0" d="M207.8,217.2c-0.1-1.3-0.2-3.9-0.5-5.1c-0.2-0.8-1.1-3.3-1.1-3.3l-4.3,0.8c0,0,1,2.6,1.2,3.5
		c0.3,1.5,0.6,4.4,0.6,5.9c0,1.2-0.3,3.7-0.6,4.9c-0.4,1.4-1.2,3.8-2.1,5.3c-0.2,0.3-15.6,23.8-15.6,23.8l2.1,1.4l12.3-18.1l2.1-2.6
		l2.5-5.1l1.6-3.9l1.8-1.2C207.8,223.3,207.8,218.7,207.8,217.2z"/>
	<polygon class="st0" points="254.4,200.3 260.4,199.8 280.8,142.4 283.1,135.3 284.6,130.9 279.6,129.4 276.9,137.9 276.1,140.4
		"/>
	<path class="st0" d="M240.6,260.6l-4.3-6.2l3.1-2.7l3.5-6.2l3.6-9.5l6.3-16.4l3.8-10.6l-1.8-0.7l1.3-3.2l1.3,0.8l0.6-1.4l-3.5-0.2
		l-2.2,2.3c-1.1,3.4-9.7,29.5-14.3,37.8c-0.6,1.1-1.6,2.4-2.1,3c-0.9,1-2.8,2.8-3.8,3.7c-4.3,3.7-18.3,13.6-18.3,13.6l0.6-10.6
		c0,0-9.3,8.5-12.6,11.2c-2.9,2.3-12,8.5-12,8.5l3.4,5.8l4.3-1.5l0.9,2.1l6.2-3.3l5.3-3.6l6-4.4l6.2-4.2l6.1-4.3l4.4-3.7l2.8,4.9
		l2.4,3.1l3.7,3.1l5.1,3.5l3.2-3.5l-2.7-2.5L240.6,260.6z"/>
	<polygon class="st0" points="78.1,285.1 77.8,289.8 46,287.3 46.4,282.7 	"/>
	<path class="st0" d="M192,329l-2.7-3.5l-22.7,12.3l-1-4.9l-2.8-5.8l-2.9-4.1l-11.4-17l0,0l-6.1-9.2c0,0,8.2-1.1,10.8-2
		c0.7-0.2,2.2-0.9,2.8-1.4c2.4-1.9,8-8.7,8.3-8.8l-2.5-3.1c0,0-3.8,4.5-5.3,5.9c-0.9,0.9-2.9,2.5-4,3.1c-0.8,0.5-2.3,1-3.3,1.3
		c-1.1,0.3-8.1,1.7-8.1,1.7h-1.5c0,0-3.2-2.5-4.5-3.2c-0.7-0.3-2.4-0.7-3.2-0.8c-3.2-0.6-12.5-1.1-13.9-1.2v0.1l-23-1.5l-0.3,4.3
		l12.7,1.2l-2.6,31.6c0,0-1.4,3.7-2.2,4.7c-0.7,0.9-3.5,2.9-3.5,2.9l-9.4,3.1l-7,2.3l1,4.7c0,0,8.6-2.7,11.4-3.8
		c2.7-1.1,9-3.1,10.5-5.6c1.9-1.9,4-6.7,4.6-9.4c0.8-3.2,1-13.5,1-13.5l1-16.8c0,0,13.3,1.2,17.7,1.9c0.8,0.1,2.3,0.4,3,0.6
		c0.8,0.3,2.5,0.8,3.1,1.4c2.8,2.4,8.3,12.4,8.3,12.4l9.9,15.5l-4.4,10.2L132,348.4c0,0-5.7,4.2-7.3,5.9c-0.4,0.4-1,1.5-1.2,2.1
		c-0.3,1-0.1,4-0.1,4v1.9l-18.9,9.8l-4.4,1.9l-6.2-8.3l-7.4-9.3l-0.9-7l1-0.4l-2.9-7.3l-1.5,3.6l-1.8,0.2l2.2,5l4.7,18.7v2.2
		l2.8,0.9l0.5,4.6l2.2,0.8l1.1,5.5l6.9,2.6l5.1-3.4l0.4,2l6.8-3.4l11.3-6.2l4.4-1.7l-2.5-7l2.8-1.5l1.4,2.5l3.2,0.4l0.3-1.9h2.2
		l0.1-2.3l3.1,0.2l2.2-0.6l6.7-5.8l3.4-2.5l3.8-1.5l3.1-0.6h3.1l4.2-1.5l7,8.7l0.7-4.7l-0.7-2.1l-2.2-4.2l-1.8-3.7l-0.2-2.6
		l16.1-8.9L192,329z"/>
	<polygon class="st0" points="231.6,363.7 220.2,375.3 212.8,382 209.6,385.2 205.1,388.4 201.3,390.9 197.8,392.1 193.4,380.9
		190.9,374.3 188.3,370.1 181.8,363.1 176.6,368.6 182.8,375.1 184.8,374 188.3,381.3 193,393.5 194.8,398.2 197.1,406.6
		199.4,405.5 201.4,404.8 198.9,396.8 202.6,395.9 206.8,393.9 212.8,389 218.5,383.4 236.7,365.8 234.9,360.7 	"/>
	<polygon class="st0" points="52.4,367 48,369 31.1,317.4 32.1,301.6 37.1,306.8 36.3,317.3 	"/>
	<polygon class="st0" points="264.7,281.5 261.8,284.6 284.3,309.4 287.6,306.1 280.4,298.2 272,289.7 	"/>
	<polygon class="st0" points="296.2,297.1 299.5,300.5 306.2,293.6 315,285.2 359.5,256 356.6,252.1 313.2,280 302.8,290 	"/>
	<polygon class="st0" points="357,246.1 359,241.8 363.8,243.9 362.5,246.7 	"/>
	<polygon class="st0" points="370.4,197 375.7,196.6 372.8,213.5 370.5,224.8 367.8,234.4 362.9,234.1 364.6,229.4 365.7,224 	"/>
	<polygon class="st0" points="370.9,191.8 374,179.2 377.9,153.1 378.5,149.6 382.8,125.9 387.7,129.4 385,145.8 406.5,144.4
		411.3,147.6 402.5,149 392.4,149.8 383.9,150.2 383.7,152.5 379.1,182.4 376.8,191.4 	"/>
	<path class="st0" d="M391.7,91.1l-3.7,7.5l-0.9,1.4l-3,3.3l-3.1,2l-7.9,4.5l5,2.5l-1,0.8l0.2,0.2c0.3,0,0.5-0.1,0.8-0.1
		c3.4,0,6.2,2.8,6.2,6.2c0,0.5-0.1,1-0.2,1.5l0.1,0.2l4.3,2.7l3.1-16.6c0,0,0.5-3.9,0.8-5.1c0.2-0.8,0.6-2.3,1-3.1
		c0.3-0.8,1.7-2.9,1.7-2.9l1.2-2.8L391.7,91.1z"/>
	<path class="st0" d="M415.2,286.1"/>
	<path class="st0" d="M430.1,292.4c0,0,5.5,0.4,7.4,0.4s5.7-0.1,7.6-0.2c1.8-0.2,5.2-0.7,7-0.9c2-0.2,5.9-0.8,7.9-0.9
		c1.4-0.1,4.1-0.2,5.5,0c1.6,0.2,4.8,0.9,6.3,1.4c4.2,1.3,16.1,7.1,16.1,6.8l11.2,5.2c0,0,5.6,2.6,7.6,3.4c1.3,0.5,3.9,1.6,5.3,1.9
		c1.2,0.3,3.7,0.4,4.9,0.4c1.4,0,4.3-0.2,5.8-0.3c1.2-0.1,3.7-0.4,4.9-0.3c0,0-1.2-0.9-1.5-1.3c-0.5-0.7-1.4-3.4-1.4-3.4
		c-2.9,0.1-8.5,0.1-10.3-0.1c-1.5-0.2-4.5-0.9-6-1.4c-4.3-1.4-16.5-7.5-16.5-7.5s-15.6-7.4-20-8.4c-3.5-0.7-5.8-1.2-9.1-1.4
		c-4-0.3-12.7,1.3-16.8,1.6c-3.1,0.2-12.2,0.4-12.2,0.4l-11.1-0.7l-1.8-0.2l-5.7-0.8l-2.5,4.1c0,0,3.1,0.9,3.3,0.9
		c0.2,0,4.4,0.7,4.4,0.7l5,0.5L430.1,292.4z"/>
</g>
<g id="blocks009">
	<path class="st0" d="M181,68.3l7.4,4.3l2,1c0,0,7.1,2.7,9.5,3.6c2.7,0.9,8.1,2.6,10.8,3.4c2.2,0.6,8.9,2.4,8.9,2.4l0.2,1.8
		l-0.1-1.8c0,0,4.8,0.8,6.2,1.2c2.3,0.7,5.7,1.8,7.9,2.6c0.7,0.3,1.6,0.6,2.6,1.1l1.8-3.9c-1.5-0.6-3.1-1.2-4.1-1.5
		c-2.2-0.8-6.6-2.5-8.9-3c-2.1-0.5-6.4-0.6-8.5-1.1c-1.8-0.4-5.1-1.8-6.8-2.3c-1.5-0.5-6.1-1.9-6.1-1.9s-5.2-1.7-6.9-2.4
		c-1.5-0.6-4.3-2.1-5.8-2.8s-4.5-2.1-6-3c-1.1-0.7-3.4-2.2-4.4-3.1c-0.6-0.6-2.1-2.4-2.1-2.4l-2-0.6l-2.4,2.8l3.8,3.7L181,68.3z"/>
	<polygon class="st0" points="328.2,160.4 327.3,167.9 339.8,195.3 342.1,200.5 349,215.8 364.6,229.4 365.7,224 352.7,212.9
		346.9,199.7 344.4,194.3 	"/>
	<path class="st0" d="M418.8,128.4c0,0-1-1.8-1.2-2.2c-0.3-0.6-0.9-2-1.2-2.7c-0.4-0.9-1.2-2.6-1.7-3.4c-0.4-0.7-1.1-2.1-1.6-2.7
		c-0.5-0.7-1.8-2-2.4-2.7c-0.7-0.9-2.2-2.8-2.9-3.8c-0.5-0.7-1.6-2.2-2-2.9c-0.5-0.8-1.3-2.4-1.6-3.2c-0.5-1.1-1.3-4.3-1.3-4.3
		l-7.8-4.4l1.2-2.8l10.3,5c0,0,1,3.7,1.5,4.9c0.5,1,2.4,3.9,2.4,3.9s2.6,3.1,3.4,4.2c0.8,1,2.3,3.1,3,4.1c0.8,1.2,2.4,3.8,3.1,5.1
		c0.5,1,1.3,3.2,1.8,4.3c0.4,0.6,1.2,1.8,1.7,2.4c0.7,0.9,2.1,2.5,2.8,3.4c0.7,0.8,1.9,2.5,2.6,3.3c0.9,1.3,3.7,5.1,3.7,5.1
		l-4.2,1.7l-4.3-6.5L418.8,128.4z"/>
</g>
<g id="blocks008">
	<path class="st0" d="M134.1,374.3l-3.7-7.1l-1.4-2.5l-2.8,1.5l2.4,7.1l0.2-0.1l9.6,16.2l-24.8,11.2l-8.3-0.8l-9-1.1L94,383.6
		l-1.2-5.9l-3.8-1.3l3.4,21.9l-17.5,0.1c0,0-2.3-3.2-3.1-4.6c-0.9-1.6-2.3-5.1-2.8-6.9c-0.7-2.7-1-8.2-1.2-10.9
		c-0.1-1.6-0.3-6.3-0.3-6.3l-4.3,0c0,0-0.1,5.2,0,6.9c0.2,2.7,1,8.2,1.7,10.8c0.7,2.6,2.2,7.8,3.6,10c0.8,1.3,4.3,4.2,4.3,4.2
		l8.3,0.7l24,1.3v-0.7h3.1l3.9,1l4.9,0.2l27.3-13.3L134.1,374.3z"/>
</g>
<g id="blocks007">
	<polygon class="st0" points="210.1,82.3 203.2,85.8 203.5,86.4 201.1,87.6 204.9,96.9 202.9,97.6 206.3,101.3 208.9,104.9
		218.6,109.1 222,106.8 222.6,106.6 	"/>
	<polygon class="st0" points="205.7,55.2 208.1,55.1 208.9,55.5 212.3,55.4 213.2,56.3 216.9,57.7 220.5,59.5 221.4,50.4
		206.6,50.1 	"/>
	<polygon class="st0" points="250.9,71 258.1,72.8 260,67.9 261,62 256.6,60.1 253.4,67.4 252.4,67.1 	"/>
	<polygon class="st0" points="253.5,105.4 256.1,105.4 256.1,106.3 250.2,107.6 242.3,111.5 237.8,113.8 234.2,112.5 229.3,109.2
		232.8,103.2 231.7,101.9 233.6,97.8 236.1,97.7 238.8,96 245.9,97.6 249.5,98.5 250.2,96.6 254,97.8 	"/>
	<polygon class="st0" points="216.6,150.8 225.2,167.5 228.3,167.4 228.4,154.9 231.4,154.9 234.5,152.7 235.2,149.3 236.6,146.6
		236.2,139.6 222.9,147.7 	"/>
	<path class="st0" d="M220.6,173l-4.7,0.6l-3.7,0.7l0.2,11.9l8.4,0.1L220.6,173z"/>
	<path class="st0" d="M198.2,196.8l-5.8,1.4l-9.5,1.5l0.4,7.6l17.1-2.7L198.2,196.8z"/>
	<path class="st0" d="M208.7,208.4l-2.5,0.4c0,0,0.9,2.4,1,3.2c0.3,1.3,0.4,3.8,0.5,5.1c0.1,1.5,0,6.1,0,6.1l3.7-1.9l-0.5-3.9
		L208.7,208.4z"/>
	<path class="st0" d="M138.1,234.6l10.9,17.7l8.5-5.4c0,0-2.2-9.5-3.2-12.5c-0.4-1.4-1.6-4-2.1-5.3c-0.3-0.7-1.4-2.9-1.4-2.9
		L138.1,234.6z"/>
	<path class="st0" d="M174.5,236.3l-6.6,4.3l6.4,10.5l6.8,6.4l4.3-4.6c0,0,15.4-23.5,15.6-23.8c0.9-1.5,1.7-3.9,2.1-5.3
		c0.3-1.2,0.6-3.7,0.6-4.9c0-1.5-0.2-4.5-0.6-5.9c-0.2-0.9-1.2-3.4-1.2-3.4l-41.6,6.2l-1.5,4.5l-3.9,3.9l3.4,7.1l7.3-4.6l1.9-1.1"/>
	<polygon class="st0" points="89.3,250 88.3,246 78.3,251.9 78.9,255.8 	"/>
	<path class="st0" d="M113,346.7l5.8-8.6l3.9-2.6l9.4,12.9c0,0-5.7,4.2-7.3,5.9c-0.4,0.4-1,1.5-1.2,2.1c-0.3,1-0.1,4-0.1,4
		L113,346.7z"/>
	<path class="st0" d="M141.4,363l-2.2,0.6l-3.1-0.2l-0.1,2.3h-2.2l-0.3,1.9l-3.2-0.4l3.7,7.1l3.4,5.5l6.7,11l2.4,2l16-24.4
		c0,0,1.1-2,1.4-2.6c0.4-0.9,1.2-3.6,1.2-3.6s-3.6,0.3-4.8,0.4c-1.1,0.2-3.4,0.6-4.5,0.9c-1,0.3-3.9,1.7-3.9,1.7l-5-0.2l-2.5,0.8
		L141.4,363z"/>
	<path class="st0" d="M210.7,346.8l0.8,2.5l1.2,1l1.3,4.2l1.8,1.3l1.3-0.6l1.2,10.8l3.7,0.3l2.8-0.8l1.9-2.6l0.7-1.5l4.5-1.1l4-4.2
		l-1.3-2.4l-2-7.2l-3,1.4l-2-3.5L226,340c0,0-3.1,1.7-4.3,2.3c-1.3,0.7-4.5,1.9-5.9,2.4C214.6,345.3,210.7,346.8,210.7,346.8z"/>
	<path class="st0" d="M406.3,235.7c0,0-10.2,4-13.7,5.2c-3.6,1.2-14.4,4.4-14.4,4.4l3.5,2.7l6.8-0.5l2.5,1.7l2.7,0.2l3.4,2.1
		l4.3-0.9h4.9l1.9-10.2L406.3,235.7z"/>
	<path class="st0" d="M431.9,222.7l1.3,0.1l5.1-3.2c0,0,4.3,0.4,5.8,0.7c1.6,0.3,6.4,1.8,6.4,1.8s-1.8,3.7-2.4,4.8
		c-0.9,1.5-2.8,4.5-3.9,5.9c-1,1.3-4.3,5.1-4.3,5.1l-4.5-7.4l-5-5.8L431.9,222.7z"/>
	<path class="st0" d="M580.2,333.3c-0.3-0.4-1.1-1.1-1.6-1.3c-0.4-0.2-1.8-0.4-1.8-0.4l-1.3-3v-4.2l-6-0.4l-0.3-2.9H565l-0.9-2.9
		l-6.5,0.3l3.9,4.4l3.3,4.7l3.7,6.3l2.6,6.6l1.5,2.6l2.4,2.6l2.3-7.4l2.1,0.6l2.7,0.5l0.4-1.6c0,0-0.6-1.9-0.9-2.6
		C581.4,334.8,580.6,333.8,580.2,333.3z"/>
	<path class="st0" d="M407.1,309.2l1.9,5.3l0.9,6.1v5.5l-0.5,4.4l-1.4,1.8l-1.9,4.9l-3.8,2.6l-4.8,2.2v2.1l3.1,2.6l-11.1,11.5
		l-5.1-0.3l-0.7,3.6l0.3,3.7l0.4,1.6l0.4,0.9l2,2.6l3.4,0.8l3.8-0.3l6.3-6.1l6.6-10.6l10.7-4.8h2.1l8.6,5.8l3.9-4.9l2.1-5.3l1.1-5.2
		l-1.6-3.5l1.3-2.8c0,0,3.8-5.4,4-7.5c0.2-1-0.4-2.4-0.8-3.3c-0.5-1-1.7-3-2.3-3.9c-0.8-1.1-2.7-3-3.5-4.1c-0.9-1.3-2.7-3.9-3.1-5.4
		c-0.2-1.1,0.1-3.5,0.3-4.6c0.2-1,1.2-2.8,1.4-3.8c0.1-1,0-2.9-0.1-3.8c-0.1-1.2-0.9-4.7-0.9-4.7l-4.8,0l0.4,3.7l-3.5,0.2l-1.3,2.4
		l-2.7,2.5l-3.3,1.6l-7.4,2.8l-1.8,1L407.1,309.2z"/>
	<polygon class="st0" points="158.3,231.3 164.6,242.5 161.8,244.3 160.2,237.7 	"/>
	<path class="st0" d="M465,344.2l-1,0.7h-5.8l-6.5-3.5l-3.3-0.3l-3.5,2.8c0,0-3,3.1-3.8,4.3c-0.4,0.6-0.9,1.7-1.1,2.3
		c-0.2,0.6-0.1,1.7-0.1,2.3c0.2,2.3,1.8,8.8,1.8,8.8l-1.1,2.4l2,1.8l1.1,2.3l-0.1,3l-1.7,12.3l7.3,7.3l2.8-0.4l5.9-6.7l1.7-7.4
		l-0.3-16.4l6.3-7.1v-3.5H465V344.2z"/>
</g>
<g id="blocks006">
	<polygon class="st0" points="276.5,88.1 281.6,89.4 285.8,90 295.5,90 295.5,94.9 297,95.9 297,106.3 293.9,106.3 293.9,110.3
		274.9,105.7 274.9,104.3 270.4,102 	"/>
	<polygon class="st0" points="279.9,59.9 288.4,61.4 280.5,79.3 263.4,74.1 265.7,71.6 268.7,74.1 269.7,72.2 274.1,74.7 	"/>
	<polygon class="st0" points="373.8,85 370.6,94.9 371.4,95.5 370.1,99 376.5,103.1 381,105.3 384.1,103.3 387.1,100 388,98.6
		385,97.4 384.5,94.2 386.7,89.1 	"/>
	<polygon class="st0" points="197.3,177.8 199.8,176.7 203.8,176.7 208.5,174.8 206.8,169.3 206.1,156.8 202.9,159.6 193.4,164.1
		"/>
	<path class="st0" d="M159.9,323l9.6-16.5l-1.7-2.3l-0.3-0.8l-3.3-1.6l-2.4-3.2l1.1-0.6l-1.8-2.5l7.8-6.2c0,0-4.3-4.8-4.6-4.7
		s-5.9,6.9-8.3,8.8c-0.6,0.5-2.1,1.2-2.8,1.4c-2.6,0.9-10.8,2-10.8,2L159.9,323z"/>
	<polygon class="st0" points="173.7,299.1 177.3,304.3 183.8,300.3 184.8,302.4 188,300.8 192,306.5 182.3,310.3 177.1,315.1
		169.5,306.5 	"/>
	<polygon class="st0" points="195.2,295.9 197.1,297.7 198.9,300.4 200.3,303.3 197.6,305.5 192.3,297.9 	"/>
	<polygon class="st0" points="189.7,273.9 183.8,270 179.9,267.8 180.2,266.4 181.5,265.5 183.4,264.4 185.2,262.5 185.5,261.1
		186.7,260.8 188,258.8 189.1,255.5 176.1,269.8 176.6,271.4 177.1,273.3 178.7,275.6 180.3,276.5 186.7,276.8 	"/>
	<polygon class="st0" points="144.3,258.8 138.4,262.5 139.9,266.3 141,266 142.6,270.8 154.8,270.1 153,264.7 152.3,259.5
		145.2,259.6 	"/>
	<polygon class="st0" points="260,78.8 251.5,90 265.3,97.6 270.8,85.4 276.5,88.1 278.6,84 	"/>
</g>
<g id="blocks005">
	<path class="st0" d="M221.4,50.4l-0.9,9.1L223,61l4.1,4.5l18.4,4.3l3.8-3.4l4.1,1l3.2-7.3L261,62l-1,5.9l-1.9,4.9l5.3,1.3l2.3-2.5
		l3,2.5l1-1.9l4.5,2.5l5.9-14.9c0,0-2.4-0.3-3.1-0.6c-1.3-0.6-3.6-2.4-4.9-3c-1.1-0.5-3.5-1.1-4.8-1.3c-1.5-0.2-4.6,0.4-6.1,0.4
		c-2.1-0.1-6.3-0.6-8.4-1.1c-2.2-0.5-6.6-2.2-8.8-2.9c-1.3-0.4-3.9-1.3-5.3-1.4c-2.1-0.3-6.3-0.1-8.4,0
		C228.1,50,221.4,50.4,221.4,50.4z"/>
	<path class="st0" d="M206.5,66.1l-2.7,8.1c0,0,4.6,1.4,6.1,1.9c1.7,0.5,5,1.9,6.8,2.3c2.1,0.5,6.4,0.6,8.5,1.1
		c2.3,0.5,6.7,2.2,8.9,3c2,0.7,5.9,2.2,7.8,3c1.2,0.5,3.8,1.5,5,2.1s4.6,2.4,4.6,2.4l3.8-5l4.7-6.2l-11.9-3.2l-13.6-2.9L218.9,69
		L206.5,66.1z"/>
	<path class="st0" d="M295.5,90v4.9l1.5,1v10.4h-3.1v2.6v1.4c0,0,7.3,1.7,9.8,2.4c2.3,0.6,6.8,2,9,2.8c1.4,0.5,4.2,1.4,5.6,2
		c1.7,0.7,6.8,3.1,6.8,3.1l5.6,2.6c0,0,1-2.1,1.3-2.8c0.4-0.8,0.8-2.6,1-3.5c0.2-1.2,0.6-4.8,0.6-4.8l-9.6-4.7l-2.8-5.5l-3.3-3.4
		l-0.3-1.1l-1.3-1.1L316,94l-13-4l-0.4,0.5L295.5,90z"/>
	<polygon class="st0" points="188.4,72.6 185.9,75.3 190.5,83.6 193.5,81 190.4,73.6 	"/>
	<polygon class="st0" points="199.2,97.6 202.9,97.6 206.3,101.3 208.9,104.9 203.1,102.8 	"/>
	<path class="st0" d="M218.6,109.1l3.4-2.3l3.6-1.3l3.1-2.1l-2.6-4.1l-0.1-1.6l-4.2-6.9l-1.9-4.1l-0.2-3.7c0,0,4.8,0.8,6.2,1.2
		c2.3,0.7,5.7,1.8,7.9,2.6c2.1,0.8,6.9,2.9,8.9,3.7c2.1,0.9,8.3,3.9,8.3,3.9l-1.5,4l-3.6-0.9l-0.3-3.8l-4.2,0.1l-2-1.3l-2.2,1.9
		l1.6,1.5l-2.7,1.7l-2.5,0.1l-1.9,4.1l1.1,1.3l-3.5,6l4.9,3.3l3.6,1.3l-5,2.8c0,0-5.2-2.6-6.9-3.5
		C224.2,111.9,218.6,109.1,218.6,109.1z"/>
	<polygon class="st0" points="248.7,113.5 263.5,116.8 258.1,130.2 237.8,119.3 	"/>
	<path class="st0" d="M157.6,102.7l0.4-1.4c0,0,6.9,0,9.3,0c2.8,0,8.5-0.2,11.3,0c2.3,0.2,6.8,1,9.1,1.4c2.8,0.6,11,2.7,11,2.7v4.3
		h-0.8l-0.5-0.9l-5.9,2.5l-0.1,1.9c0,0-5-3.2-6.8-4c-2.6-1.1-8-2.6-10.7-3.3c-2.5-0.6-7.6-1.8-10.1-2.3
		C162.2,103.2,157.6,102.7,157.6,102.7z"/>
	<path class="st0" d="M138.7,111.6l6.3-2.3l5.6-1.2l6.6-0.5l5.3,0.6l6.1,1.4l6.9,2v1.6l4.7,0.8l-34.6,12l-4.6,10.9
		c0,0-1.7-3.6-1.9-4.9c-0.1-0.6-0.1-1.8,0.1-2.4c0.2-1,1-2.7,1.4-3.6c0.2-0.5,0.6-1.5,0.8-2c0.1-0.4,0.4-1.3,0.5-1.7
		c0.2-1,0.9-3,0.7-4c-0.2-0.8-1.4-2.2-1.8-2.9C140.1,114.4,138.7,111.6,138.7,111.6z"/>
	<polygon class="st0" points="198,120.1 200.3,121.8 200.9,120.7 204.6,119.8 203.2,117.3 	"/>
	<path class="st0" d="M204.9,105.8l4,12.1l13.4,4.3l7.9-4.3c0,0-4-2.4-5.3-3.1c-1.9-1-5.9-2.9-7.8-3.8c-1.7-0.8-5.1-2.4-6.9-3.1
		C208.8,107.3,204.9,105.8,204.9,105.8z"/>
	<path class="st0" d="M235,120.5l0.4,16.8l0.8,2.3l-13.3,8.1l-15.1,7.4c0,0,2.8-3.4,3.5-4.7c0.7-1.1,1.7-3.5,2.2-4.8
		c0.8-1.9,2.2-5.8,3-7.7c0.6-1.4,1.9-4.2,2.8-5.5c0.6-1,2.8-3.8,2.8-3.8s1.8-1.8,2.5-2.3C226.9,124.6,235,120.5,235,120.5z"/>
	<polygon class="st0" points="289.9,114.5 288.8,118.2 299.9,124.6 308.5,127.8 310.9,128.5 311.8,120.2 301.2,117.3 	"/>
	<polygon class="st0" points="316.8,121.8 316,129.3 319.4,129.3 328.2,131.9 328.9,127.3 	"/>
	<polygon class="st0" points="131.4,148 136.3,163.5 135.1,164.5 141,180.4 130.8,184.9 121.8,159.4 126.8,153.3 	"/>
	<polygon class="st0" points="117.8,163.8 126.3,186.8 101.5,198.2 105.8,184.3 109.2,174.4 113.9,168.4 	"/>
	<path class="st0" d="M164.1,383.5l4.3,1.4c0,0-3.5,1.8-4.3,2.8c-0.9,1-2.1,3.6-2.1,5c0,1.5,1.1,4.6,2.1,5.8
		c0.6,0.8,3.5,2.3,3.5,2.3s-7,1.5-9.3,2.2c-1.4,0.5-4.2,1.5-5.5,2.3c-1,0.6-3.7,3.2-3.7,3.2l-2.2,2.5l-2.9,2.1l5.3-7.5l6.7-8.8
		l4.5-6.7l2.1-4.1L164.1,383.5z"/>
	<polygon class="st0" points="182.4,387.2 181.9,388.8 178.8,390 178.5,394.4 176.8,398.2 193,393.5 188.3,381.3 181.6,383.1 	"/>
	<polygon class="st0" points="193.4,380.9 198.1,379.3 200.3,383.8 203.3,384.7 205.5,382.5 207.9,382 210.3,380.1 211.2,379.8
		212.8,382 209.6,385.2 205.1,388.4 201.3,390.9 197.8,392.1 	"/>
	<polygon class="st0" points="194.8,398.2 160.4,407.6 156.2,409.2 153.1,411.4 148.4,415.9 150.8,418.9 153.1,419.9 154.2,419.9
		155.1,420.4 155.3,422.4 158.2,423.4 158,425.3 158.9,426.4 157.6,428.1 156.4,430.7 156.6,434.3 157.1,436.1 155.1,437.9
		154.7,440.3 152.5,440.3 152.9,436.4 149.9,437.5 147.7,434.8 144.8,436.6 145.6,440.3 149,441.1 150.1,442.8 150.9,445.4
		150.7,446.6 146.3,446.6 142.9,448.6 143.4,452.2 145.4,453.8 146.1,455.7 148.6,455.7 148.9,452.7 152.5,451.8 155.4,450.5
		156.7,450.8 157.8,453.2 158.6,453.3 159.7,451.1 161.3,450.7 162.9,451.6 163.9,451.1 164.8,449.3 166.6,448.6 168.4,447.8
		169.6,446.8 172.1,446.4 173.4,442.6 172.8,439.3 172.8,437.2 171.6,435.9 172,433.8 170.4,431.6 170.8,429.6 172.3,429.3
		172.8,426.9 175.6,426.9 175.1,425 173.4,424.5 173.6,421.2 170,420.1 167.6,420.9 165.6,419.6 167.3,415.8 170.9,413.6
		173.1,412.5 180.6,411.9 184.1,411.6 182.9,407.9 186.6,405.5 194.4,409.1 197.1,406.6 	"/>
	<path class="st0" d="M418.3,241.2l-10.1-0.9l-1.9-4.6c0,0,3.6-1.9,4.6-2.8c1-0.8,2.7-2.6,3.6-3.5c0.8-0.8,2.1-2.6,3-3.3
		c1.2-1,4-2.5,5.4-3.3c1.4-0.7,3.8-1.9,5.2-2.3c1.1-0.3,3.8-0.9,4.9-1c1.2-0.1,5.3,0.1,5.3,0.1l-5.1,3.2l-1.3-0.1l-1.5,2l5,5.8
		l4.5,7.4l-7.3,7.6l-6.4,7.3l-2.1-1.6l-7.3-0.2L418.3,241.2z"/>
	<path class="st0" d="M423.5,270.8l4.7,2.2l6.9,2.2c0,0-4,2.7-5.3,3.8c-1.2,1-3.8,3.2-5,4.3c-1,0.9-3.9,3.6-3.9,3.6l-5.7-0.8
		c0,0,2.9-3.6,3.8-4.9c0.8-1.2,2.7-3.8,3.2-5.2C422.7,274.6,423.5,270.8,423.5,270.8z"/>
	<path class="st0" d="M575.6,328.7h8.3l-1.4,9.3c0,0-0.6-1.9-0.9-2.6c-0.2-0.6-0.9-1.6-1.3-2.1c-0.3-0.4-1.1-1.1-1.6-1.3
		c-0.4-0.2-1.8-0.4-1.8-0.4L575.6,328.7z"/>
	<polygon class="st0" points="575,345.9 576.1,342 577.3,338.5 579.4,339.1 582.1,339.6 581.1,347.6 579.1,346.3 577.1,348 	"/>
	<path class="st0" d="M585.1,297.4c-1.5-1.4-4.5-4.4-5.9-5.8c-1.5-1.5-4.1-4.6-5.7-6c-1.3-1.2-4.3-3.5-5.8-4.6
		c-1.4-1-4.3-2.8-5.9-3.4c-0.9-0.3-3.7-0.9-3.7-0.9l-5.6-0.1l0.1,9.3l1.5,0.2l-0.1,2.1l2,3.3l-2.6,0.6l-3.7,0.2v-0.4l-3.5-0.2v-7.9
		h-3.6l-0.6,0.8l-1.5,0.9l-7.7-0.1v-5l1.9-4.1c0,0-2.5,0-3.3-0.1s-2.3-0.3-3-0.5c-1-0.2-3-0.9-4-1.3c-1.2-0.4-3.4-1.6-4.6-2.1
		c-1.1-0.4-3.3-1.3-4.5-1.5c-1.1-0.2-3.5-0.4-4.6-0.4c-1,0-3.8,0.5-3.8,0.5l0.3,6.4l2.6,0.3l0.6-1.3l3.3,0.4v3.9h3l2.4,5.4l-2.4,1.1
		l3.9,7.2h3.4v-1.9h3.6v3.5c1.4-1.1,3.2-1.7,5.1-1.7c4.7,0,8.4,3.8,8.4,8.4c0,1.9-0.6,3.6-1.7,5l5.6,2.5l6.4,3.2l3.2,2.3l3,3
		l6.5-0.3l-0.4-3.5l2.8-0.2l6-2.5c0,0,1.4-1.9,2.1-2.4c0.6-0.5,2.1-1.3,2.9-1.3c0.8-0.1,2.3,0.5,3,0.9c0.5,0.3,1.6,1.7,1.6,1.7
		l4.4,0.6c0,0,0-1.5,0-2.1c0.1-1,0.4-3.1,0.7-4.1c0.4-1.2,2.1-4.4,2.1-4.4S586.1,298.4,585.1,297.4z"/>
	<path class="st0" d="M524.4,302.8c0-0.6,0.1-1.2,0.2-1.7l-9-2.8l-3.2-0.9l0.2-0.8l1.2,0.2l0.1-0.4l0.9-0.1l-0.1-8.9l-2.2,0.9
		l-9.4-0.2v-6.9l-4.8-0.2v2.4l-5.2-0.3V281l-4.3-0.1l1-5.4l-5.1,1.6l2,2.1l-0.3,3.4l0.9,0.1l-0.8,4.8l-0.8,0.2L485,289l-23-7.3
		l0.6-2.3l7-0.6l-8.4-1.7l-9.1-2.3l-5.9-0.8l-5.2,0.8l-4.9,1.7l-4.8,3l-8.6,7.6l11.1,0.7c0,0,9.1-0.2,12.2-0.4
		c4.1-0.3,12.8-1.9,16.8-1.6c3.3,0.2,5.6,0.7,9.1,1.4c4.4,1,20,8.4,20,8.4s12.2,6.1,16.5,7.5c1.5,0.5,4.5,1.2,6,1.4
		c1.8,0.2,7.4,0.2,10.3,0.1C524.5,304,524.4,303.4,524.4,302.8z"/>
	<path class="st0" d="M384,382.3l-2.8-1.5l-1.7-4.4l-0.1-5.8c0,0,0.9-0.1,1.2-0.2c0.6-0.2,1.6-0.8,2.1-1.2c0.6-0.5,1.8-2.3,1.8-2.3
		l-0.4-1.7l-0.3-3.7l0.7-3.6l-1.3-2.5l-1.8,0.6l-2.3-5.2l-3.3-3.5h-1.1l-1.1,5.1l-1.3,3.7l-4.3,4.7l-4.9,3.8
		c0.1,0.4,0.1,0.8,0.1,1.2c0,4.5-3.7,8.2-8.2,8.2c-1.7,0-3.4-0.5-4.7-1.5l-1.6,3.2l2.8,1l1.8-1.5l-0.8,5.7l-0.7,4.6l1.9,4.9l-2,0.3
		l-0.5,1.4l1.6,1.5l-3.3,2.6v2.7l-1.8,4.9l8.1,1.9l9.3,1l12-6.7l5.8-5.5l3.1-3L384,382.3z"/>
	<path class="st0" d="M400.3,280.8l-6.5-5.6L391,270h-3.5l5.4,9.9v4.8l-4.7,3.3l-2.1-1.1l-0.7,5l1.2,3.8l-3,1.9l-1.4-1.4L380,298
		l-2.3-1.7l-2.2-4.8L375,283l1.1-1.1l-0.5-5.1l-1.5-4.4l0.8-3.4H373l-0.6-3.5l5.1-7.3l0.5-2.4l-11.3-4.1l-2.1,0.8l-9.3,6.3
		L332,273.9l-17,11.3l-8.8,8.4l-36,37.3l-33.5,34.9l-18.4,17.7l2.6,0.6l5.9-2l1.8-1.6h0.9l2.1-3.4l0.9,2.3h2.3l3.2-1.3l1.5,2.5h1.9
		l1.4,4.4l1.5,0.8l3.5,5.7l2.5,3.3l1.6,2.9l0.6,2.6l5.3-5.6l3.1-0.4l2.1-2.1l1-2.1l2.6-2.3l0.6-8.5l1.1-1.7l1.9-2.4l-1.5-1.3l-0.8-2
		h-2.4l-2.6-5.5l-3.3-1.8l-2.1-2.6l-2.5-1.3l-1.4-2.9l4-2.8l2.8,3.5l1.3,3.1l3,1.3l3.3-2.1l-0.3-4l-1.5-3.1l2.6-2.5l1.4,0.9v3
		l1.3,2.4l2.1,0.4l0.9,1.6v-2.1l-1.4-4.3l-0.3-1.9l-1.6-2.5l7.5-2.5l1.5,1.3l2.6-1.3l-1.8-3.9l-2.6,0.6l0.1-0.6l1.3-0.8l-0.1-1.4
		h-1.1l-0.1-1.3l1.4-0.8l0.4-2.6l2.6-2.8l0.9,3.5l4.1-1l0.8,1.1l3-1.6l1.6-0.1l2.4,5.8l1.5-0.5l4.1,3.8l3.9,0.5l6.4-3.9l0.6-6.4
		l1.5-1.1l-0.6-2l-0.6-0.6l-1.6,1.4l-5.3-1.4l0.3-4.1l-6.4-16l5-3.4l-0.1-1.6l5.8-4.9l8.4-2.1h3l18,2.4l3.3-3.4h8.5l1,16.4l-3,2
		l-5.9,6.8l1.3,8l2.4,4.5l-1,5l-2.3,5.4l-1,8.8l-3.5,2.1l-3.5,0.3l-1.8,1.4l1,7.1l1.8,2.6l4.5,0.5l1.5,2l4.1-2.5l0.2-0.1
		c-0.1-0.5-0.1-1-0.1-1.5c0-4.5,3.7-8.2,8.2-8.2c2.2,0,4.2,0.9,5.6,2.2l0.5-0.2l10.1-17.7c0,0,1.2-3,1.7-3.9
		c0.6-0.9,2.9-3.4,2.9-3.4l5-6.7l0,0c-0.9-1.3-1.4-2.9-1.4-4.6c0-4.7,3.8-8.6,8.6-8.6c0.6,0,1.1,0.1,1.6,0.2l0.1-0.1l2.3-3.6
		l8.5-8.3l8.4-15.5L400.3,280.8z"/>
	<path class="st0" d="M420.4,291.8c0,0-4.2-0.7-4.4-0.7s-3.3-0.9-3.3-0.9l-5.8,11.6l-2.9,4.3l-5.4,5.2l-4.8,5.6l-0.1,0.2
		c1.6,1.6,2.7,3.8,2.7,6.2c0,4.7-3.8,8.6-8.6,8.6c-1.4,0-0.8,0-1.4,0l-4.6,4l-4.4,4.3l2.3-0.4l1.8,0.4l2.3,3.1l3.5,1.4l0.9,1.2
		l0.3,1.5l1.6-1.3l7.4-2V342l4.8-2.2l3.8-2.6l1.9-4.9l1.5-1.9l0.4-4.3v-5.5l-0.9-6.1l-1.9-5.3l-1.4-2.7l1.8-1l7.3-2.7l3.4-1.7
		l2.7-2.5l1.3-2.4l3.5-0.2l-0.4-3.7L420.4,291.8z"/>
	<path class="st0" d="M471.8,292.2c-1.5-0.5-4.7-1.2-6.3-1.4c-1.4-0.2-4.1-0.1-5.5,0c-2,0.1-5.9,0.7-7.9,0.9c-1.8,0.2-5.2,0.7-7,0.9
		c-1.9,0.1-5.7,0.2-7.6,0.2s-7.4-0.4-7.4-0.4s0.8,3.5,0.9,4.7c0.1,0.9,0.2,2.8,0.1,3.8c-0.2,1-1.2,2.8-1.4,3.8
		c-0.2,1.1-0.5,3.5-0.3,4.6c0.4,1.5,2.2,4.1,3.1,5.4c0.8,1.1,2.7,3,3.5,4.1c0.6,0.9,1.8,2.9,2.3,3.9c0.4,0.9,1,2.3,0.8,3.3
		c-0.2,2.1-4,7.5-4,7.5l-1.3,2.8l1.6,3.5l-1.1,5.2l-2.1,5.3l-3.9,4.9c0,0,1.4,1,1.8,1.4c0.8,0.7,2.2,2.1,2.9,2.8
		c0.4,0.4,1,1.2,1.4,1.5c1.4,1,6.2,3.1,6.2,3.1l1.1-2.4c0,0-1.6-6.5-1.8-8.8c0-0.6-0.1-1.7,0.1-2.3c0.2-0.6,0.7-1.7,1.1-2.3
		c0.8-1.2,3.8-4.3,3.8-4.3l3.5-2.8l3.3,0.3l6.5,3.5h5.8l1-0.7l0.1-4.2h-2.5l-0.1-2.9l-2.9-7.8l-2.3-8.4l-1.2-6.3v-4.1l2-3.3
		l-0.5-0.8l1.4-4.7l0.9-2.3l8.3-0.7l0.1,3.1l8,2l-0.1,1.3l1.6,0.2l0.3,0.7l3.3-1.5l3.4,0.9v-2.2l1.8-0.7l1.3-3.5
		C487.9,299.3,476,293.5,471.8,292.2z M447.6,340.9l-4.7,4.1l-1.3-2v-3.7l-0.4-2.9V333l0.5-2.9l5.1,0.4l2.1,1.4v3.6l1.9,4.6
		L447.6,340.9z"/>
	<path class="st0" d="M498.9,271.3l1.6-7.1l-0.1-3.4l5.6-6l5.9-2.2l-0.4-0.9l9.2-3l6.6,4.9l7.5,5.7l6.4,4.5l6.7,4.5l6.6,4.6
		c0,0,1.1,0.8,1.3,1.1c0.1,0.2,0.1,0.6,0,0.7c-0.1,0.2-0.7,0.3-0.7,0.3s-17.5,0.5-23.2-0.3c-1.4-0.2-4-1-5.3-1.5
		c-1.6-0.6-4.7-2.1-6.4-2.7c-1.8-0.6-5.4-1.7-7.3-1.9c-1.5-0.2-4.4,0-5.9,0.2C504.9,269.4,498.9,271.3,498.9,271.3z"/>
	<path class="st0" d="M261.7,284.8l0.1-0.2L261.7,284.8l-5.1,5.7l-4.7,10.8l-7.4,17.6h-1.7l-7.5,11.3L226,340l1.5,4.3l2,3.5l3-1.4
		l2,7.2l1.3,2.4l-4,4.2l-4.5,1.1l-0.7,1.5l-1.9,2.6l-2.7,0.8l-3.8-0.3l1.9,9.3l25.1-25.6l12.4-12.8c-0.4,0.1-0.9,0.1-1.4,0.1
		c-4.4,0-7.9-3.6-7.9-7.9s3.6-7.9,7.9-7.9s7.9,3.6,7.9,7.9c0,0.4,0,0.8-0.1,1.1l20.2-20.8L261.7,284.8z"/>
	<polygon class="st0" points="354.5,240.3 348.3,240.3 338,241.2 331,241.9 324.1,244.9 313.6,249.7 301,256.3 289.2,263.1
		276.4,268.9 271.5,272.2 269.2,276.7 264.7,281.5 273.8,291.7 280.4,298.2 280.4,298.2 280.8,297.8 288.4,289.6 291.8,292
		298.4,287.3 300.6,289.6 302.1,288.7 302.8,290 313.2,280 356.6,252.1 357,246.1 359,241.8 	"/>
	<path class="st0" d="M367,247.3c1.8,0.4,6.7,1.7,8.5,2.1c1.7,0.4,3.5,0.5,5.3,0.7l1-2.2l-3.5-2.7l-2.4,0.8h-3.7l-3.9-0.5l-4.4-1.6
		l-1.3,2.8l0,0C364.3,246.9,366.1,247.2,367,247.3z"/>
</g>
<g id="blocks004">
	<path class="st0" d="M190.4,73.6l3.1,7.4l4.5,2.6l5.2,2.2l6.9-3.5l12.5,24.3l3.1-1.1l3.1-2.1l-2.6-4.1l-0.1-1.6l-4.2-6.9l-1.9-4.1
		l-0.4-3.7c0,0-6.7-1.8-8.9-2.4c-2.7-0.8-8.1-2.5-10.8-3.4C197.5,76.3,190.4,73.6,190.4,73.6z"/>
	<polygon class="st0" points="237.2,94.5 238.8,96 245.9,97.6 245.6,93.8 241.4,93.9 239.4,92.6 	"/>
	<polygon class="st0" points="303,90 302.6,90.5 295.5,90 290.5,90 285.8,90 281.6,89.4 276.5,88.1 278.6,84 287.5,86.3 295.7,88.3
			"/>
	<path class="st0" d="M267.5,178.5l5.7-15.8l3.4-9.1l4.2-11.2l8.4,2.1l8.8,9.1l3.7,4.1l1.7,3.5l1.1-0.8c0,0,1.1,2.3,1.4,3.1
		c0.3,1,0.8,4.1,0.8,4.1s0.3,2.6,0,3.5c-0.2,0.5-1.3,1.8-1.3,1.8s-1.4,1.6-2,2c-2.2,1.7-9.7,5.3-9.7,5.3l-6.4-10.8l-17.1,10l2.3,2.6
		l3,4.7l1.9,3.5c0,0-0.5,0.1-1.4,2.1s-0.9,2-0.9,2l-0.6,2.9l-0.3,3.1l-13.8-0.5L267.5,178.5z"/>
	<polygon class="st0" points="288.4,61.4 280.5,79.3 290.7,81.8 303,85 313.7,87.9 316.8,84.8 317.9,83 320.2,75.8 321,70.6
		311.2,66.8 304,64.2 296.8,62.2 291.5,62 	"/>
	<polygon class="st0" points="303.6,156 300.6,152 296.1,148.9 293,144.9 298.6,146 305.4,147.4 	"/>
	<path class="st0" d="M327.5,78.1c2.2-4.5,2.2-4.5,2.2-4.5l9.5,2.3l12.3,3.2l-4.4,8.3l-4.2,7.3c0,0-3.1-2.9-3.9-4
		c-0.8-1-1.8-3.4-2.6-4.3c-0.8-0.9-3.6-3.2-3.6-3.2l0.6-2.9L327.5,78.1z"/>
	<path class="st0" d="M335.7,125.5l2-4.8l1.6-8.4l1.6-5.6l2.1-2.9l16.6,6.7l5.7,3.1c0,0-8.1,4-10.8,5.4c-3.2,1.6-12.8,6.6-12.8,6.6
		L335.7,125.5L335.7,125.5z"/>
	<path class="st0" d="M356.2,92.6c7.9,0.7,7.9,0.7,7.9,0.7l3.6,3.5l2.4,2.2l6.4,4.1l4.5,2.2l-9.5,5.4c0,0-6.9-2.8-9-4.1
		c-0.9-0.6-2.7-2-3.3-2.9c-1.2-1.7-2.7-5.6-3-7.6C356.1,95.2,356.2,92.6,356.2,92.6z"/>
	<polygon class="st0" points="316,129.3 319.4,129.3 328.2,131.9 325.9,143.4 325.5,146.2 324.8,152 322.5,147.7 317.3,136.8
		315.3,131.9 	"/>
	<polygon class="st0" points="310.9,128.5 308.1,127.7 308.1,131.3 307.4,133.8 308.8,134.4 310.4,130.2 	"/>
	<polygon class="st0" points="302.2,125.5 296.9,122.9 293.1,120.7 288.8,118.2 283.1,135.3 286.4,138.3 291.2,142 299.7,144.2
		305.8,144.9 307.8,137.2 299.4,135.8 295.1,133.7 295.7,132.2 294.7,131.5 295.4,129.7 299.3,126.9 300.3,127.7 	"/>
	<path class="st0" d="M309.8,148.5l8.6,1.1l3,6l-8.6,3.4l0.8,3.5L312,164c0,0-2.8-3.2-3.2-4.3c-0.4-0.8-0.5-2.6-0.6-3.5
		c-0.1-0.8-0.1-2.5,0-3.4s1-3.1,1-3.1L309.8,148.5z"/>
	<path class="st0" d="M311.5,169.6c1.7,1.4,1.6,0.6,1.7,1.4c0.2,0.8,0.2,0.8,0.2,0.8v1.7l-1.5,0.3l-0.1,1.2l-2,1l-1.5,0.3l2.7-3.4
		L311.5,169.6z"/>
	<path class="st0" d="M279.3,195.1c-0.7,6-0.7,6-0.7,6l10.9-0.1l8.5-0.8l4.8-9.1c0,0,0.3-1.5,0.2-2c0-0.4-0.2-1.2-0.3-1.5
		c-0.2-0.5-0.9-1.9-0.9-1.9l1.9-6.1L287,189l-4.8,2.8"/>
	<path class="st0" d="M257.9,204.6l18.2,0.8l-2,3.7l-1-0.4c0,0,0.3,0.3-2,1.1s-2.3,0.8-2.3,0.8h-2.7l-8.8-4.6L257.9,204.6z"/>
	<path class="st0" d="M256.5,209.1l11.6,4.6l-1.6,2.1l-1.9,4.7l-1.3,2.8l-0.7-1l-1.6,1.5l-1.8,0.5l-1.4,1.8l-1.4,2.2
		c0,0,0.4,0.5-1.8,2.8s-2.3,2.5-2.3,2.5l-1.2,2l-1.1,2.6v2.8l1.3,1.3l0.7-3.8l2.1-4.6l2.3-2.9l2.1-3.1l1.8-2.1h2.4
		c0,0,0.9-1.1,1.9,1.5s1,2.6,1,2.6l1.5,1.5c0,0-0.3,0.3,2.8,1.8s1.9,0.5,3.1,1.6s0.6-0.6,1.2,1.1s0.6,1.6,0.6,1.6s-0.3,0.9,0.6,2.3
		s1.5,0.7,0.9,1.3c-8.1,8.5-8.1,8.5-8.1,8.5l-4.5-4.2l-5.3-2.8h-4.2l-5,2.1l-5.6,4.9l-4.3,2.2l3.5-6.2l3.6-9.5l6.3-16.4L256.5,209.1
		z"/>
	<path class="st0" d="M270.5,253.7l1.7,3.3l1.3,3.8c0,0,2-0.3,8.8-4.5c6.8-4.1,6.8-4.1,6.8-4.1s4.6-2.9,5.2-3.6s0.6-0.7,0.6-0.7
		l0.4-0.8l-13-4.9L270.5,253.7z"/>
	<path class="st0" d="M228.2,298.1l6.7,7.4c0,0-0.3-0.4,4.3-7.6c4.6-7.3,4.6-7.3,4.6-7.3s1-1.3,4.7-6.6c3.7-5.3,5.2-6.6,5.2-6.6
		l-3.7-3.5l-13.8,15.2L228.2,298.1z"/>
	<polygon class="st0" points="200.3,303.3 197.6,305.5 203.6,313.6 213.1,304.7 224.4,294.2 233.3,284.9 239.3,278.5 237.7,277.1
		232.8,282.8 229.3,279.1 230,276.5 232.3,273.5 235.9,269.7 239.8,273.9 239.3,274.8 241.3,276.5 246.6,271.3 241.5,267.8
		237.8,264.7 235.4,261.6 232.6,256.7 228.2,260.5 222.1,264.8 215.9,269 209.9,273.4 204.6,277 198.4,280.3 193.6,282.4
		189.1,286.1 190,292.4 192,293.2 195.2,295.9 197.1,297.7 198.9,300.4 	"/>
	<polygon class="st0" points="263.5,116.8 273.4,119.3 273.4,121.5 280.1,127.7 276.9,137.9 266.7,134.4 258.1,130.2 	"/>
	<path class="st0" d="M220.8,186.3l-0.2-13.3c0,0,2.1-1.7,2.8-2.4c0.6-0.6,1.8-3,1.8-3l3.1-0.1l0.1-12.5h3l3.1-2.2
		c0,0,0.4-2.6,0.7-3.4c0.3-0.7,1.4-2.7,1.4-2.7l-0.4-7l-0.8-2.3l-0.4-16.8l14.2,7.8c0,0-0.1,1.5,13.4,6.8
		c13.5,5.3,13.5,5.3,13.5,5.3l-21.7,59.9l-16.6-1.2l-32.9,5.3l-7.6-26.6l2.5-1.1h4l4.7-1.9l3.7-0.5l0.2,11.9L220.8,186.3z"/>
	<polygon class="st0" points="133.4,189.3 147,183.7 161.1,177.8 177.4,171.3 189.3,166.1 198.2,196.8 192.4,198.2 188.7,184.9
		180.3,186.8 181.8,192.3 182.9,199.7 183.3,207.3 168.2,209.4 153.2,211.8 147.6,212.3 140,200 	"/>
	<polygon class="st0" points="95.1,274.4 95,280 95,286.9 118,288.4 116.6,276.6 138.7,263.3 138.4,262.5 144.3,258.8 142.7,256.9
		149,252.3 138.1,234.6 150.9,226.3 148.1,221.6 145.6,217.6 100,233.1 91.3,238.4 93.9,242.6 88.3,246 	"/>
	<polygon class="st0" points="58.6,271.8 46.8,278.1 46.4,282.7 78.1,285.1 78.9,279.3 62.7,278.4 	"/>
	<polygon class="st0" points="46,287.3 45.1,296.8 36.7,296.6 36.6,302.8 39.3,305.6 48,311.1 65.8,303 78.4,303 78.9,291.7
		77.7,291.4 77.8,289.8 	"/>
	<path class="st0" d="M112.2,292.6c0,0,13.3,1.2,17.7,1.9c0.8,0.1,2.3,0.4,3,0.6c0.8,0.3,2.5,0.8,3.1,1.4c2.8,2.4,8.3,12.4,8.3,12.4
		l-27,20.7l-14.8,10.9l-7,4.4l-8.9,4.1l-2.9-7.3c0,0,8.6-2.7,11.4-3.8c2.7-1.1,9-3.1,10.5-5.6c1.9-1.9,4-6.7,4.6-9.4
		c0.8-3.2,1-13.5,1-13.5L112.2,292.6z"/>
	<polygon class="st0" points="82.6,350.5 80.4,345.5 69.3,346.6 70.5,351.2 	"/>
	<polygon class="st0" points="93.9,365.7 100.1,374 104.5,372.1 123.4,362.3 123.4,360.4 113,346.7 106.5,356 	"/>
	<path class="st0" d="M105,403.6l-11.1-0.7l-12.8-0.6l-10.7,2.1l-0.5,3.2l4.9,3.7l5.6,2.9l6,2l7.4,1.3c0,0,0.8,0.8,8,0.9
		s7.1,0.1,7.1,0.1L105,403.6z"/>
	<polygon class="st0" points="192,306.5 199.6,317 190.1,325 166.6,337.8 165.6,332.9 162.8,327.1 159.9,323 169.5,306.5
		177.1,315.1 182.3,310.3 	"/>
	<path class="st0" d="M184.6,333.7l5.4,8l3.1,0.4l-9.2,5.9c0,0-2.9,1.2-5.5,4.2s-2.6,3-2.6,3h-2.4l-0.7-2.1l-2.2-4.2l-1.8-3.7
		l-0.2-2.6L184.6,333.7z"/>
	<path class="st0" d="M181.8,363.1l6.5,7l2.6,4.2l2.5,6.6l4.7-1.6v-4l8.4-4c0,0,3.1,6.3,4.7,8.5l1.6,2.2l7.4-6.7l-1.9-9.3l-1.2-10.8
		l-1.3,0.6l-1.8-1.3l-1.4,0.6v0.9l-10.4,5.6l-2.8-5.1l-1-2.9l-12.1,4.7L181.8,363.1z"/>
	<path class="st0" d="M449.8,188.6c0-2.9,1.3-5.4,3.3-7.2l0,0l-3.3-4l-15.9-12.3L411.8,148c0,0-9.9,2.3-13.5,2.9
		c-3.5,0.6-14.6,1.6-14.6,1.6l-4.6,29.9l-2.3,9h10.4h51l8.3-0.8l3.5-0.6C449.8,189.5,449.8,189.1,449.8,188.6z"/>
	<path class="st0" d="M487.8,163.6l-6-8.6l-7.6-8l-14.8-16.5l-19.7,9.3l-1.4-0.7l-9.5,3.8l-11.1,3.9l16,12.1c0,0,12.9,9.8,16.9,13.4
		c1.7,1.5,6.4,6,6.4,6l0.6,0.9c0.6-0.1,1.2-0.2,1.9-0.2c2.9,0,5.5,1.3,7.3,3.4l3.7-2.5l-2.4-3.6L487.8,163.6z"/>
	<path class="st0" d="M476,187.5l-1.3-1.9l-1.8-1.9l-4.4,2.8c0.1,0.7,0.2,1.4,0.2,2.1c0,3.8-2.2,7-5.4,8.6l-0.2,0.6
		c0,0,0.3,6.8-0.3,9.1c-0.5,1.9-3.3,7.1-3.3,7.1l7.4,4.2l7,2.8l7.6,1.9l1.3-6.3l3-0.2l5.3-1.8h2.4L476,187.5z"/>
	<path class="st0" d="M451.2,193.7l-5.5,1.7L423,196h-27.2l-14.5,0.3l-5.6,0.3l-2.9,16.9l-2.3,11.3l-2.7,9.6c0,0,5.4-0.4,7.1-0.8
		c4.2-0.8,12.5-2.9,16.5-4.5c3.1-1.2,9.1-4.4,12-6.3c2.5-1.6,6.9-5.6,9.4-7.2c2.2-1.4,6.7-3.8,9.1-4.7c2.6-1,8.1-2.1,10.9-2.5
		c2.6-0.3,11.3-0.1,11.3-0.1l1.9,0.8l2.8-1.3l6.6,3.4c0,0,1.9-3.6,2.4-5.3c0.3-1,0.7-4.5,0.8-5.6c0-0.6,0.1-1.5,0.1-2.5
		C455.5,197.8,452.8,196.1,451.2,193.7z"/>
	<path class="st0" d="M235.8,247.5c-0.9,1-2.8,2.8-3.8,3.7c-4.3,3.7-18.3,13.6-18.3,13.6l0.6-10.6c0,0-9.3,8.5-12.6,11.2
		c-2.9,2.3-12,8.5-12,8.5l-5.9-3.9l1.5-0.7l0.4-1.5l-1.9-1.5l5.3-6.3l-1.1-1.3l1.1-3.3l2.7-1.9l2.5-7.2h0.9v2.7l-0.3,3.9l3.4-2.9
		l0.8-4.1l2.5-3.6l6.6-8l3.3-3.6l11.9-9.7l10.8-7.9h2.6l1.7-7.2h-3l-0.1,1.5l-3.4,1.5l-0.5-0.7l-17.8,14.5l-0.3-1.3l-2-0.1l-0.5-3.9
		l-2.2-9l24-3.7l8.3-1l10.5,0.6l-10,2l-0.5,2l1.6-0.3l6.4-2.5l3.4-0.1v0.8c0,0-9.5,29.3-14.4,38.2
		C237.3,245.6,236.3,246.9,235.8,247.5z"/>
	<polygon class="st0" points="195.9,407.7 197.1,406.6 199.4,405.5 203.1,409.4 206.8,411.7 209.3,412.2 207.3,403.5 201.4,404.8
		198.9,396.8 202.6,395.9 206.8,393.9 212.8,389 218.5,383.4 221.1,384 226,383 233.7,381.3 234.9,382 235.6,383.5 238.8,382.8
		242.9,384.9 244.4,385.7 250.4,394.6 252,397.5 252.6,400.1 253.2,402.6 252.7,405.8 252.3,408.8 253.2,411.8 253.9,413.2
		255.9,413.2 261.6,416.3 264.5,416.6 264.5,417.8 263.4,418.5 262.3,420.4 258.1,418.7 256.7,418.4 254.7,419.5 250.7,422.8
		247.1,423.6 244.4,422.4 241.6,419.2 237.3,420.6 233.9,421.5 230.2,421.3 227.5,420.5 231,422.9 231.1,426.3 232.6,430.7
		232.3,433.9 231.3,437.4 230.2,439.1 230.6,440.4 230.2,442.2 228.7,443.5 227.5,444.1 229.3,446.3 226.8,446.8 225.1,448.1
		223.3,449.6 221.5,450.3 221.3,444.5 212.2,447 210.4,449.1 205.6,446.4 205,445.2 197.8,443.8 195.9,445.3 192.8,444.6
		191.4,447.8 188.6,448.8 187,447.6 181.8,447.1 183.4,446.4 183.9,445.3 179.2,439.6 176.9,430.7 182.5,428.8 184.8,424.4
		190.4,426.9 195.8,425.9 195.1,413.6 198.1,412.1 202,415.4 202.9,414.8 	"/>
	<polygon class="st0" points="288.4,289.6 291.8,292 298.4,287.3 300.6,289.7 302.1,288.8 302.8,290.1 287.6,306.1 280.4,298.2 	"/>
	<polygon class="st0" points="299.5,310.1 305.9,326.1 324.8,319.4 325.3,320.6 331.5,323.2 337.2,321.4 337.6,322.8 340.1,322
		340.1,320.4 342,319.6 343,321.1 344.9,320.5 349.3,315.5 352.3,313.5 351.3,297.1 342.8,297.1 339.5,300.5 321.5,298.1
		318.5,298.1 310.1,300.3 304.4,305.1 304.5,306.8 	"/>
	<path class="st0" d="M424.3,266l0.9-3.4l1.8-3.6l6.9-7.2l8.9,5l2.2-4l2.4,0.9l-0.4,3.4l2.7,1.4l1.4-1.5l3.1-2.1l1.9,0.1l-1,7.2
		l6.1,2.5l0.6-8.4c0,0-0.4-3.5,0-4.6s1.8-3.2,2.8-3.8c1.6-1,5.5-1.4,7.4-1.2c1.4,0.2,4.1,1.3,5.2,2.2c0.9,0.7,2.3,2.7,2.5,3.8
		s-0.3,3.4-0.7,4.4c-0.4,1-2.4,3.5-2.4,3.5l-2,6.6l-1.4,0.3l0.2,5.6l3,2.4l0.1,0.9l-2.2,1.7l-6.6-1l-14.5-3.8l-5.4-1.1l-3.3,0.3
		l-4.9-6.5L424.3,266z"/>
	<path class="st0" d="M489.8,275.6l-1,5.4l4.3,0.1v2.1l5.2,0.3V281l4.8,0.2v6.9l9.4,0.2l2.2-0.9l0.1,8.9l-0.9,0.1l-0.1,0.4l-1.2-0.2
		l-0.2,0.8l12.1,3.7c0,0,0.5-1.9,0.8-2.4c0.4-0.7,2.3-2.8,2.3-2.8v-3.5H524v1.9h-3.4l-3.9-7.2l2.4-1.1l-2.4-5.4h-3v-3.9l-3.3-0.4
		l-0.6,1.3l-2.6-0.3l-0.3-6.4l-2.2,0.5L489.8,275.6z"/>
	<polygon class="st0" points="534.7,276.3 532.8,280.4 532.8,285.4 540.5,285.5 542,284.6 542.6,283.8 546.2,283.8 546.2,291.7
		549.7,291.9 549.7,292.3 553.4,292.1 556,291.5 554,288.2 554.1,286.1 552.6,285.9 552.5,276.6 	"/>
	<path class="st0" d="M462.6,337.3h2l5.7-5.3h3.4l2-1.3l0.3-1.6l1.3-1.3l3.3,1.8l-0.3,3l-7,9.3l-1.8,2l-1.9,4.4l-3.6,4l-6.6,7.5
		l0.3,16.4L459,380l-1,3.6l-5.9,6.7l8.8,4.7l1.6-1.5l1.5,0.9l1.9,7.3l1.5,1.7l2.3,1.4l-3.4-12.3l5.2-2l6.6-4l-0.7-0.8l3.2-3.3
		l1.1,0.4l2.4-0.1l0.4-0.9l1.3-0.1l1.5-3l2,0.5l1.9,0.6h2.6l1.5-3.6h3.2l0.2-2.9l-0.2-2.8l-1.8-2.2l-3.5-3.9l-1.3-3.3
		c0,0,0.3-2.1,0.4-2.8c0.2-1.2,0.4-3.5,0.3-4.7c0-1.4-0.8-5.5-0.8-5.5l0.9-2.3l-0.1-2.6l-0.8-1.1v-1.6c0,0,2.2-0.1,2.8-0.4
		c0.6-0.3,1.9-1.8,1.9-1.8l2.1-2.3l0.8-2.5l0.4-3l-0.3-3.4l-1.8-3.1l-1.7-3.6l-0.6-1.9l1.6-3.9l0.3-3.4l-0.3-1l2.1-6l-11.2-5.2
		l-1.3,3.5l-1.8,0.7v2.2l-3.4-0.9l-3.3,1.5l-0.3-0.7l-1.6-0.2l0.1-1.3l-8-2l-0.1-3.1l-8.3,0.7l-0.9,2.3l-1.4,4.7l0.5,0.8l-2,3.3v4.1
		l1.3,6.9l2.3,8.4L462.6,337.3z"/>
	<polygon class="st0" points="593.3,304.3 592,307.8 590.9,314.4 589.9,322.4 592.6,320.3 592.8,318.8 594.3,317.7 595.6,319.1
		600.4,318.7 603.1,316.3 603.4,313.3 595.3,306.4 595.6,306.1 	"/>
	<path class="st0" d="M586.5,311.6l-4.4-0.6c0,0-1.1-1.4-1.6-1.7c-0.9-0.5-1.8-0.9-3-0.9c-1.2,0.1-2.2,0.7-3,1.4
		c-0.6,0.5-2,2.3-2,2.3l-6,2.5l-2.8,0.2l0.4,3.5l0.9,2.9h4.3l0.3,2.9l6,0.4v4.2h8.3L586.5,311.6z"/>
</g>
<g id="blocks003">
	<polygon class="st0" points="137.6,102.7 142.9,100.5 148.2,99.1 153.7,98.3 157.6,80.7 159.3,76.3 161.3,71.6 163.9,67.3
		160.8,60.7 159.4,59.1 158.3,59.9 156.3,58.3 156.8,55.6 156.7,53.5 155.8,49.4 156.3,47.5 154,49.4 150.9,53.2 148.4,57.1
		143.6,65.3 139.3,71.8 137.8,75.1 134.3,79 135.6,81.9 134.8,83.6 132.8,84.1 131.3,87.9 134.6,90.8 137.1,94.4 138.7,94.4
		139.1,95.3 137.8,96.6 137.3,99.8 	"/>
	<path class="st0" d="M63.3,357c-3.7,0-6.7-3-6.7-6.7c0-2.7,1.6-5.1,4-6.1c-0.6-0.4-1.8-1.3-2.2-1.8c-1-1.2-2.6-3.9-3.2-5.4
		c-0.6-1.5-1.5-4.6-1.3-6.2c0.1-0.8,1.1-2,1.3-2.8c0.2-0.7,0.2-2.1,0.1-2.8c-0.1-1.3-0.2-4.1-0.8-5.3c-0.5-0.9-2.1-2.3-2.9-3
		c-1-0.8-3.1-2.3-4.2-3c-1.1-0.7-3.5-2-4.6-2.8c-1.5-1-5.7-4.2-5.7-4.2l-0.8,10.5L52.4,367l4.9-2.1l4-0.8l3,0.4l-0.9-7.1L63.3,357z"
		/>
	<path class="st0" d="M159.1,97.9l1.6-8.2l2.5-9l6.9,1.9c0,0,0.3,2.9,0.8,3.8c0.5,0.8,2,1.9,2.9,2.1c1.3,0.3,3.3,0.1,4.3-0.4
		c0.8-0.4,2.2-2.4,2.2-2.4l8.2,1.7c0,0,1.5,4.4,2.2,6.1c0.4,0.9,2.8,3.7,2.8,3.7l-0.5,1.2c0,0-4.6-0.9-6.3-1
		c-3-0.1-7.6-0.8-10.6-0.8c-3.2,0-8.4,0.4-11.6,0.6C163.8,96.9,159.1,97.9,159.1,97.9z"/>
	<polygon class="st0" points="387.7,129.4 385,145.8 406.5,144.4 	"/>
	<path class="st0" d="M388.5,123.8l27.2,20.8l12.7-3.9l-4.3-6.5l-5.3-5.8c0,0-5.2-1.1-6.8-1.5c-1.3-0.4-3.8-1.1-4.9-1.9
		c-1.1-0.7-2.8-2.5-3.7-3.4c-1.9-1.9-5.9-5.6-7.6-7.8c-1.2-1.5-4.2-6.6-4.2-6.6L388.5,123.8z"/>
	<polygon class="st0" points="370.4,197 365.7,224 352.7,212.9 346.9,199.7 	"/>
	<polygon class="st0" points="282.3,242.2 293.4,231.2 298,225.5 301.4,219.9 303.1,217.5 308.9,210.5 314.6,207 325,202.6
		342.1,200.5 349,215.8 364.6,229.4 362.9,234.1 343.6,228.6 337.1,226.3 332.2,226.7 327.9,227.9 306.7,236.7 298.4,241.5
		295.4,247.1 	"/>
	<polygon class="st0" points="285.1,231.7 283.8,230.4 278.5,231.1 276.8,233.5 269.3,230.9 267.7,229.2 265.1,224 263.3,223.3
		264.6,220.5 266.5,215.8 268.1,213.7 275,210.5 276.2,209.5 277.5,207.6 283.3,206.6 291.3,206.6 293.7,208.4 297.5,210.5
		299.1,210.5 298.1,212 300.3,213.3 297.5,217.8 293.9,223.8 291.8,225.9 288.5,229 	"/>
	<polygon class="st0" points="270.5,253.7 272.2,257 273.5,260.8 267.5,264 263.3,268.2 257.7,273.9 253.8,270.7 260.9,263.8 	"/>
	<polygon class="st0" points="268.2,249.6 263.6,245.2 260.9,243.3 258.4,242.4 254.2,242.4 249.2,244.5 243.6,249.4 239.3,251.8
		236.3,254.4 240.6,260.6 247.1,265.3 249.8,267.8 	"/>
	<path class="st0" d="M228.2,298.1l6.7,7.4l-3.4,8.4c0,0-4.3,10-4.4,10.4c-0.1,0.4-3.8,5-3.8,5l-3.6,3.2l-4.9,1.8l-7.5,2.4l-8.2,2.9
		l-6,2.5l-3.1-0.4l-5.4-8l8-5.1l9.2-6.1l5.5-5.3l9.7-9L228.2,298.1z"/>
	<polygon class="st0" points="145.9,311.4 154.3,324.4 149.8,334.6 132.1,348.4 122.7,335.5 125.8,329.6 129.7,324.8 	"/>
	<path class="st0" d="M144.6,365.7l-3.2-2.7l6.7-5.8l3.4-2.5l3.8-1.5l3.1-0.6h3.1l4.2-1.5l7,8.7l-3.3,2.1l-4.1,0.1
		c0,0-3.6,0.3-4.8,0.4c-1.1,0.2-3.4,0.6-4.5,0.9c-1,0.3-3.9,1.7-3.9,1.7l-5-0.2L144.6,365.7z"/>
	<path class="st0" d="M144.3,390.8l2.4,2l-3.8,4.7l-5,5.4c0,0-6,5.3-6.4,5.5s-6.8,5.1-6.8,5.1L121,415l-2.7-6.2l1.4-0.8l-2.8-4
		L144.3,390.8z"/>
	<polygon class="st0" points="128.7,373.2 138.3,389.4 113.5,400.6 105.2,399.8 96.2,398.7 93.8,383.3 101.5,383.2 105.8,382.5
		106.2,384.5 113,381.1 120.1,389.2 121.7,385 124.7,381.3 127.6,378.1 124.3,374.9 	"/>
	<path class="st0" d="M47.4,376.2c0,0,2.7-2.3,3.7-3c0.9-0.6,2.6-1.7,3.6-2.1c1.3-0.5,4.1-1.2,5.5-1.4c0.7-0.1,3,0,3,0
		s-0.1,5.2,0,6.9c0.2,2.7,1,8.2,1.7,10.8c0.7,2.6,2.2,7.8,3.6,10c0.8,1.3,4.3,4.2,4.3,4.2l8.2,0.7l-10.5,2.1l-0.5,3.1
		c0,0-8.6-7.9-10.6-11.2c-0.4-0.6-0.8-2-1-2.7c-0.4-1.2-0.8-3.8-1.2-5c-0.3-1.1-1.1-3.3-1.6-4.3c-0.7-1.4-3.3-5.5-3.3-5.5
		L47.4,376.2z"/>
	<polygon class="st0" points="70.5,351.2 72.5,366.6 87.3,371.4 87.3,369.2 82.6,350.5 	"/>
	<polygon class="st0" points="32.1,301.6 31.1,317.4 48,369 46.3,370.8 45.9,368 43.4,365.7 42,367 40.1,365 37.9,364.8 37.5,363.6
		31.9,361 30.8,358.4 28,357.8 23.3,352.8 22.5,350.5 21.8,345.5 22.5,343.9 18.6,336.9 9.6,325.3 8,324.6 0,315.9 5.1,313.9
		8.4,316.8 10.9,317.1 11.8,315.9 11.6,313.3 15,312 18.9,306.9 19.5,303.9 18.1,300.8 15.3,296.6 12.8,293.9 10.6,290 5.8,286
		5.5,282.4 2.6,280.9 3.3,279.3 7.6,281.5 13.6,286.4 19.5,294.9 25.8,299.4 28.8,299.4 	"/>
	<path class="st0" d="M164.1,383.5l12.5-14.9l6.2,6.5l2-1.1l3.5,7.3l-6.7,1.8l0.8,4.1l-0.5,1.7l-3.2,1.2c0,0-1.1-1.7-1.8-2.4
		c-0.6-0.6-2.1-2-2.9-2.3c-0.8-0.3-2.8-0.7-3.7-0.7c-0.5,0-2,0.3-2,0.3L164.1,383.5z"/>
	<path class="st0" d="M447.3,253.7l-2.4-0.9l-2.2,4l-8.9-5l9.8-9.8l4.6-6.1L455,224l12,6.1l15.4,4.3l14.7,3.5l13.7,5.3l9.7,5.6
		l-9.2,3l0.4,0.9l-5.9,2.2l-5.6,6l0.1,3.4l-1.6,7.1l-7.3,2.2l-0.1-1.7l-2.2-0.7l-0.6-2.6l-13.9-1.5l2-6.6c0,0,1.9-2.5,2.4-3.5
		s0.9-3.3,0.7-4.4c-0.2-1.1-1.7-3.1-2.5-3.8c-1.1-0.9-3.8-2.1-5.2-2.2c-1.9-0.2-5.8,0.2-7.4,1.2c-1.1,0.7-2.6,2.9-2.9,4.1
		c-0.3,1.1,0.2,4.4,0.2,4.4l-0.6,8.4l-6.1-2.5l1-7.2l-1.9-0.1l-3.1,2.1l-1.4,1.5l-2.7-1.4"/>
</g>
<g id="blocks002">
	<path class="st0" d="M160.8,45.1l5.9-1.3h3.3l4,1.3l5.3,2.8l3.8-0.4l9,1.3v0.9h11.8l2.7,0.4l-0.9,5.1l2.4-0.1l0.8,0.4l3.4-0.1
		l0.9,0.9l3.7,1.4l3.8,1.9L223,61l4.1,4.5l-10.6-2.7l-7.3-1.4l-15.5-3.1l-8.4-2.1c0,0-3.9-0.5-5.2-0.7c-1-0.1-3.2-0.2-4.2-0.5
		c-1.2-0.3-3.4-1.4-4.5-2.1c-1.3-0.8-5.1-3.6-5.1-3.6L160.8,45.1z"/>
	<path class="st0" d="M203.8,74.2l2.7-8.1l-5.6-1.3l-8.9-1.9l-8.9-1.7l-4.5-0.7c0,0,1.5,1.8,2.1,2.4c1,0.9,3.3,2.4,4.4,3.1
		c1.5,0.9,4.5,2.3,6,3s4.3,2.2,5.8,2.8C198.6,72.5,203.8,74.2,203.8,74.2z"/>
	<polygon class="st0" points="162.8,53.2 171.3,58.6 167.8,63.3 164.7,59.8 162.5,56.5 	"/>
	<polygon class="st0" points="174.3,62.7 178.1,66.4 181,68.3 188.4,72.6 185.9,75.3 185.3,74.5 185.1,72.6 181.4,69.9 176.5,66.7
		171.3,66.7 	"/>
	<polygon class="st0" points="327.3,167.9 339.8,195.3 335.2,195.6 329.7,196.3 323.9,197.9 	"/>
	<polygon class="st0" points="321.4,155.7 323.5,159.8 319.2,193.6 316.2,195.5 315.1,196.4 313.4,196.4 310.5,197.9 310.5,198.8
		305.1,199.1 305.1,201.3 302.9,201.3 302.9,201.9 298.6,201.9 301.6,199.9 302.3,197 305.3,194.5 306.1,191.1 306.2,182.3
		313,177.8 319.4,174 316.9,170.6 312.1,164.1 313.6,162.6 312.8,159.1 	"/>
	<polygon class="st0" points="305.6,202.5 307.6,201 311,201 307.6,201.9 	"/>
	<polygon class="st0" points="318.9,196.6 318.6,198.9 312.9,200.5 311,201 312.4,199.8 314.2,199.4 316.5,197.4 318.2,197 	"/>
	<path class="st0" d="M418.8,128.4c0,0-5-1-6.6-1.4c-1.3-0.4-4-1.2-5.1-2c-1.1-0.7-2.8-2.5-3.7-3.4c-1.9-1.9-5.9-5.6-7.6-7.8
		c-1.2-1.5-4.2-6.6-4.2-6.6s0.5-3.9,0.8-5.1c0.2-0.8,0.6-2.3,1-3.1c0.3-0.8,1.7-2.9,1.7-2.9l7.8,4.4c0,0,0.8,3.2,1.3,4.3
		c0.3,0.8,1.1,2.4,1.6,3.2c0.4,0.7,1.5,2.2,2,2.9c0.7,1,2.2,2.9,2.9,3.8c0.6,0.7,1.9,2,2.4,2.7c0.5,0.6,1.2,2,1.6,2.7
		c0.5,0.8,1.3,2.5,1.7,3.4c0.3,0.7,0.9,2.1,1.2,2.7C417.8,126.6,418.8,128.4,418.8,128.4z"/>
	<path class="st0" d="M406.6,98.3c0,0,1,3.7,1.5,4.9c0.5,1,2.4,3.9,2.4,3.9s2.6,3.1,3.4,4.2c0.8,1,2.3,3.1,3,4.1
		c0.8,1.2,2.4,3.8,3.1,5.1c0.5,1,1.3,3.2,1.8,4.3c0.4,0.6,1.2,1.8,1.7,2.4c0.7,0.9,2.1,2.5,2.8,3.4c0.7,0.8,1.9,2.5,2.6,3.3
		c0.9,1.3,3.7,5.1,3.7,5.1l6.6-2.7l17.8-8c0,0-4-4.8-5.4-6.4c-1.3-1.4-5.3-5.3-5.3-5.3s-8.6-4.2-11.6-5.5c-2.3-1-7-3-9.3-4
		c-2.9-1.3-8.5-4-11.4-5.4C412.1,100.9,406.6,98.3,406.6,98.3z"/>
	<path class="st0" d="M308.8,415.5l-4.4,2.5l-11.3-0.1l-5.4,1.9h-2.9l-2.9,0.3v5.3h1c0,0,0.7-1,1.1-1.3c0.5-0.3,2.3-0.8,2.3-0.8
		l2.5,1.7l0.8-0.3l0.8,0.8l3.8-1.3l0.4,0.3l0.6-0.3l0.5,0.2l0.4,0.5l0.8-0.6l3.5,0.4l0.7-0.6l4,1.4l0.9-1.7c0,0,1,0,1.3-0.1
		c0.5-0.1,1.4-0.6,1.8-0.9c0.5-0.4,1.5-1.9,1.5-1.9v-3.6c0,0,2.1-1,2.8-1.4c0.5-0.3,1.4-1,1.8-1.3c0.6-0.3,1.7-1,2.3-1.2
		c0.7-0.2,2.8-0.1,2.8-0.1s1.8-2.1,2.3-2.9s1-2.7,1.6-3.4c0.5-0.6,2.5-1.8,2.5-1.8l3.6-1.7l1.9-2.3c0,0,3.5-2.8,4.3-4
		c0.9-1.4,2.1-6.2,2.1-6.2v-3.8l1.7-1.3c0,0,0.5-1.3,0.7-1.7c0.2-0.5,0.5-1.6,0.8-2c0.4-0.6,1.5-1.4,2.1-1.8c0.4-0.3,1.4-0.7,1.8-1
		c0.6-0.6,1.9-2.8,1.9-2.8l1.7-0.8l1.6-3.2l-3.6-5.2l-4.1,2.5l-4.5,5.8l-1.1,6.4l-0.7,3.1l-3.6,6.1l-4,4.5l-6.1,5.5l-6,6
		c0,0-3.2,3.7-4.3,4.8C311.6,413.1,308.8,415.5,308.8,415.5z"/>
</g>
<g id="blocks001">
	<path class="st0" d="M497.7,310.4l0.9,4.6v1.3l-2.6,4.1l-0.6-1.9l1.6-3.9l0.3-3.4l-0.3-1l2.1-6c0,0,5.6,2.6,7.6,3.4
		c1.3,0.5,3.9,1.6,5.3,1.9c1.2,0.3,3.7,0.4,4.9,0.4c1.4,0,4.3-0.2,5.8-0.3c1.2-0.1,3.7-0.4,4.9-0.3c1.2,0,3.5,0.4,4.6,0.7
		c1.7,0.5,6.6,2.8,6.6,2.8l-3.6-0.4l-4.1,0.8l-1.4,0.8l-1.6,0.5c0,0,0.5,2.7,0.8,3.6c0.1,0.3,0.7,0.8,0.8,1.1c0.1,0.5,0,1.5,0,1.9
		c0,0.7-0.4,2.1-0.4,2.8c0,0.5,0.1,1.9,0.1,1.9l-1.3,1.1h-1.6l-1.6-4.5l0.3-2.2l0.5-3.7l-0.2-1.6l-4.6-2l-2.4,1.6l0.2,3.3l-2,7.4
		l-3.8,0.3l-1.4-1l-2.2-2.9l-0.6-3.4l4-0.8l2.3-3l-0.6-1.4l-3.9,0.2l-3-0.7l-3.8-1l-2-1.1l-3.1-0.4L497.7,310.4z"/>
	<path class="st0" d="M543.3,314.9v0.8c0,0-0.6,2-0.6,2.2s0,3.8,0,3.8l0.6,1.3l0.4,2.9h1.5l1.5,0.9l1.6-0.8h2.4l1.9,1.1l4.1,0.8
		l3.9,5.1l4.3,6.4c0,0-1.4-3.6-2-4.7c-1-1.8-3.3-5.1-4.4-6.8c-0.9-1.3-2.7-4.1-3.8-5.3c-1-1.1-3.2-3-4.4-3.8
		C548.7,317.6,543.3,314.9,543.3,314.9z"/>
	<path class="st0" d="M574.4,351.9c-1.2-1.3-3.8-3.7-4.9-5.1c-1.1-1.4-3.9-6.1-3.9-6.1l0.5,6.8l8.4,6.9v2.8l1.2,2.4l-1.2,1.2l-0.1,1
		l-4.3-0.4l-0.6-0.9l-0.9-0.3l-0.7-2.9l-3.1-2.2l-0.8-0.2l-0.4-1.6l-0.9-0.9l0.6-1.1l-1.1-1.9l-1.9,0.1l-2.3-2.4l2.7-5.1l-0.1-0.9
		l-2-0.9l-1.3,3.6l-2.8-1.3v-0.8l-1.8-1.5l0.9-1.8V333l-2.9-4.3l-2.2-0.6l-0.9,2.8l0.3,1.5l0.6,1.6l-0.3,1.4h-1.1l-0.4-1.2l-0.9-0.6
		l-2.5,0.1l-1.4-1.9l-1.6-0.8v-3.4l-0.6-1l-1.6,0.3l-1.7-1.3v-1.1l-0.9-0.6l-1.5,1.4l-2.3,1.2l-2.3,0.3l-0.8,0.5v1.1l-0.8,1.6
		l1.6,1.5l2.2,2l1.3,0.5l0.7,0.8l2.4,0.3l1.1,1.2l2.6,0.2l3.4-0.3h1.3l0.8,0.8l0.1,1.4l3.8,1.9l-0.6,0.6l4.9,7.3l1.4,0.9l0.2,0.6
		l-0.9,0.6l-1.9-0.9l-1.3-1.4l-1,0.8l-1.6-2.1l-2.6-1.5l-1.3-1.1l-1.5-0.6l-2.1-1.1l-0.4,0.8l-9.5-0.4l-1.9-0.4l-0.6-1.1
		c0,0,0.4-1.5,0.5-2c0.1-0.6,0.2-1.8,0-2.3c-0.1-0.5-0.7-1.4-1.1-1.8c-0.2-0.2-0.6-0.5-0.8-0.5c-0.4,0-1.1,0.2-1.4,0.5
		c-0.3,0.3-0.6,1.1-0.5,1.5s0.7,1,0.9,1.3s0.6,1,0.5,1.3c-0.1,0.4-0.6,1-0.9,1.1c-0.4,0.2-1.8-0.1-1.8-0.1l-1.4-1.1c0,0-2.3,0.3-3,0
		c-0.6-0.3-1.5-1.4-2-1.9c-0.4-0.4-1.2-1.5-1.6-1.9c-0.4-0.3-1.2-1-1.6-1.1c-0.3-0.1-1.4-0.1-1.4-0.1l-4.7,9.7l-4.9-0.1l0.8,5.7
		l-3.3,1.9l-1.4-1.1l-1.9-6.3l-2.2,0.3l-0.7-1.9l2.3-2.3l0.3-1l-0.6-0.8c0,0-1.3,1.5-1.9,1.8s-2.8,0.4-2.8,0.4v1.6l0.8,1.1l0.1,2.6
		l-0.9,2.3c0,0,0.7,3.8,0.8,5.2c0,1.2-0.1,3.1-0.2,4.3c-0.1,0.7-0.5,3.5-0.5,3.5l1.3,3.3l3.1,3.5l2.2,2.6l0.2,2.8l-0.2,2.9h-3.2
		l-1.5,3.6h-2.6l5.9,6.6l-4.2,4.4l1.1,4.2l-0.9,5.4l-6.7,3.6l-4.8,2.1l-4.2,1.4l5.2,1.1h5.8l1.6,1.9l1.9,0.3l1.8,1.8l0.2,4.5
		l9.3,8.3l3.1,1.3l2-0.3l0.3-2.1c0,0-1.5-1-1.8-1.6c-0.4-0.8-0.7-3.3-0.7-3.3l0.1-5.1l4.8-5.9l4.6-0.1l1.6-2l5.6,1.2l2.1-0.3
		l2.1-1.8l1.9-1l3-1.6l2.4-1.7l1.2-3.2l-4.5-2.1l-4.3-0.1l1.5-3.6l3.4,0.4l2.9-1.5l5.3-0.8l2.9-0.8l3.4-0.2l1.3-1l1.6-0.4l1.9,0.1
		l2-4l0.7-2.4l-2.1,1.3l-0.6,1.9l-2.1,1.2l-2.7-0.4l-1.1,1.3l-8,1.6l-1.5-0.6v0.9l-6.6,1.7l-2.6-1.4l-1.4,1.4H521l-4.3-1.6l-5.4-5.1
		l-4.9-6.2l-1.1-3.4v-7.2l-2.1-0.4c0,0,0.2-5.3,0.3-5.4s1.6-3.6,1.6-3.6l2.3-2l4.6-2.8l0.1-0.8l-2.9-2.6l0.4-1.8l-0.1-2.2l1.3-0.9
		l0.9,0.3l2.3,1.9l3.8-0.3l1.6-2.3l1.4-0.4l1.4,1l2.9,0.1l1.5,1.9l0.5,1.7l1.5-0.4l0.4,2.9l2-0.3l1.8,1l1.8,0.1l0.7-0.4l1.5,0.4
		l2,1.6l0.4,1.4l3.3,0.3l2.6,1.4l1.9,2.4l1.2,2l10.8-1.8l6.7,5.8c0,0,4.2,0.3,5.4,0.5c0.9,0.2,3.3,1,3.4,1.2s3.5,2.4,3.5,2.4
		l2.1-11.9C579.8,357.1,575.8,353.3,574.4,351.9z"/>
</g>
</svg>
